<?xml version="1.0" standalone="no"?>
<!DOCTYPE svg PUBLIC "-//W3C//DTD SVG 1.1//EN" "http://www.w3.org/Graphics/SVG/1.1/DTD/svg11.dtd" >
<svg xmlns="http://www.w3.org/2000/svg">
<metadata></metadata>
<defs>
<font id="maxotbold" horiz-adv-x="1277" >
<font-face units-per-em="2048" ascent="1583" descent="-465" />
<missing-glyph horiz-adv-x="573" />
<glyph unicode="&#xfb01;" horiz-adv-x="1394" d="M35 881v163q0 13 9.5 22t23.5 9h157v76q0 97 19.5 165.5t55 112t94.5 68.5t128 34t166 9q186 0 361 -51q22 -7 22 -29v-2l-24 -149q-6 -29 -29 -29h-2q-177 31 -279 31q-122 0 -158 -32t-36 -142v-62h633q18 0 29.5 -11.5t11.5 -25.5v-1007q0 -14 -9 -22.5t-24 -8.5h-248 q-15 0 -25 9t-10 22v819h-358v-819q0 -14 -9 -22.5t-24 -8.5h-250q-14 0 -24.5 9t-10.5 22v819h-157q-14 0 -23.5 9t-9.5 22z" />
<glyph unicode="&#xfb02;" horiz-adv-x="1476" d="M35 881v163q0 13 9.5 22t23.5 9h157v139q0 164 86 245t264 81q159 0 275 -35q22 -7 22 -30v-7l-22 -139q-5 -26 -31 -26q-119 14 -145 14q-73 0 -102 -23.5t-29 -87.5v-131h358v383q0 21 7 30.5t28 12.5l238 39h10q35 0 35 -35v-1206q0 -92 79 -92q24 0 66 6q10 2 14 2 q18 0 21 -20l26 -150v-2q0 -10 -5 -18t-10 -11l-5 -2q-67 -30 -197 -30q-152 0 -229.5 78t-77.5 210v580h-358v-819q0 -14 -9 -22.5t-24 -8.5h-250q-14 0 -24.5 9t-10.5 22v819h-157q-14 0 -23.5 9t-9.5 22z" />
<glyph unicode="&#xfb03;" horiz-adv-x="2050" d="M25 881v163q0 13 9 22t23 9h158v139q0 164 86 245t264 81q139 0 275 -35q22 -5 22 -30v-7l-22 -139q-3 -26 -23 -26h-8q-95 14 -145 14q-73 0 -102.5 -24t-29.5 -87v-131h359v76q0 97 19.5 165.5t55 112t94.5 68.5t128 34t166 9q185 0 360 -51q23 -5 23 -29v-6l-23 -145 q-6 -29 -24 -29h-9q-20 0 -114 15.5t-164 15.5q-122 0 -158.5 -32t-36.5 -142v-62h633q18 0 29.5 -11.5t11.5 -25.5v-1007q0 -14 -9 -22.5t-24 -8.5h-247q-15 0 -25 9t-10 22v819h-359v-819q0 -14 -8.5 -22.5t-23.5 -8.5h-250q-14 0 -24.5 9t-10.5 22v819h-359v-819 q0 -14 -8.5 -22.5t-23.5 -8.5h-250q-14 0 -24.5 9t-10.5 22v819h-158q-14 0 -23 9t-9 22z" />
<glyph unicode="&#xfb04;" horiz-adv-x="2131" d="M25 881v163q0 13 9 22t23 9h158v139q0 164 86 245t264 81q139 0 275 -35q22 -5 22 -30v-7l-22 -139q-3 -26 -23 -26h-8q-95 14 -145 14q-74 0 -103 -23t-29 -88v-131h359v139q0 164 86 245t264 81q139 0 275 -35q22 -5 22 -30v-7l-22 -139q-3 -26 -23 -26h-8 q-95 14 -146 14q-74 0 -102.5 -23t-28.5 -88v-131h359v383q0 21 7 30.5t28 12.5l237 39h10q35 0 35 -35v-1206q0 -50 23 -71t57 -21q16 0 70 6q1 0 3 1t3 1q20 0 24 -25l27 -141v-6q0 -13 -7.5 -22t-12.5 -9q-68 -30 -197 -30q-152 0 -229.5 78t-77.5 210v580h-359v-819 q0 -14 -8.5 -22.5t-23.5 -8.5h-250q-14 0 -24.5 9t-10.5 22v819h-359v-819q0 -14 -8.5 -22.5t-23.5 -8.5h-250q-14 0 -24.5 9t-10.5 22v819h-158q-14 0 -23 9t-9 22z" />
<glyph horiz-adv-x="0" />
<glyph horiz-adv-x="0" />
<glyph horiz-adv-x="682" />
<glyph unicode="&#xd;" horiz-adv-x="573" />
<glyph unicode=" "  horiz-adv-x="573" />
<glyph unicode="&#x09;" horiz-adv-x="573" />
<glyph unicode="&#xa0;" horiz-adv-x="573" />
<glyph unicode="!" horiz-adv-x="718" d="M195 1452v4q0 40 36 45l263 39h8q33 0 33 -31v-2l-35 -1028q0 -11 -8.5 -18.5t-20.5 -7.5h-211q-12 0 -20.5 7.5t-8.5 18.5zM203 41v242q0 19 11 30t28 11h252q16 0 27 -11.5t11 -29.5v-242q0 -18 -11 -29.5t-27 -11.5h-252q-17 0 -28 11t-11 30z" />
<glyph unicode="&#x22;" horiz-adv-x="874" d="M102 1026v451q0 17 9.5 26.5t23.5 9.5h211q13 0 24 -9.5t11 -22.5v-4l-37 -451q0 -15 -10 -26t-23 -11h-176q-13 0 -23 11t-10 26zM496 1026v451q0 16 9.5 26t22.5 10h213q12 0 22.5 -9.5t10.5 -22.5v-4l-35 -451q-2 -15 -11 -26t-21 -11h-179q-12 0 -22 11t-10 26z" />
<glyph unicode="#" horiz-adv-x="1542" d="M168 475q0 6 2 10l25 129q4 31 38 31h193l49 285l-188 -2q-39 0 -39 30v11l24 131q8 28 41 28h199l61 351q8 34 43 34h123q16 0 24 -1t14.5 -7.5t6.5 -19.5v-12l-61 -345h219l62 351q8 34 43 34h122q16 0 24 -1t14.5 -7.5t6.5 -19.5v-12l-61 -345h184q39 0 39 -28 q0 -2 -1 -6.5t-1 -6.5l-24 -129q-4 -30 -41 -30l-193 2l-49 -285h190q39 0 39 -31q0 -6 -2 -10l-24 -129q-4 -31 -39 -31h-199l-74 -411q-4 -33 -38 -33h-134q-20 0 -29 7t-9 24q0 10 2 16l69 397h-217l-74 -411q-4 -33 -36 -33h-136q-39 0 -39 31q0 10 2 16l70 397h-182 q-39 0 -39 31zM637 645h217l51 285h-217z" />
<glyph unicode="$" horiz-adv-x="1443" d="M137 1071q0 220 117.5 332t361.5 131v205q0 15 10.5 28t26.5 13h160q16 0 27.5 -11.5t11.5 -29.5v-205q198 -12 389 -72q31 -10 31 -39q0 -10 -2 -14l-31 -154q-5 -26 -35 -26q-4 0 -11 1t-11 1q-249 61 -416 61q-143 0 -219 -41t-76 -141q0 -44 18.5 -76.5t38.5 -51 t72.5 -34.5t78 -21t97.5 -17q19 -3 29 -5q173 -27 251 -55q213 -76 258 -275q13 -57 13 -124q0 -217 -125.5 -331.5t-353.5 -137.5v-207q0 -18 -12 -30.5t-27 -12.5h-160q-16 0 -26.5 13.5t-10.5 29.5v202q-45 2 -89 6.5t-78.5 9t-70 11.5t-59 12t-50.5 12.5t-39.5 11 t-30.5 9.5t-19 6q-35 9 -35 43q0 9 2 11l35 161q5 29 35 29q2 0 6 -1t6 -1q1 0 47.5 -11.5t86.5 -20t100 -19.5t124.5 -17t123.5 -6q78 0 138.5 17.5t102 63t41.5 114.5q0 40 -9.5 70t-33.5 51.5t-47 35t-69.5 25t-80 17.5t-98.5 16q-58 9 -104 18t-101.5 26.5t-97.5 39 t-83.5 55t-68 74.5t-43 98.5t-16.5 126.5z" />
<glyph unicode="%" horiz-adv-x="1832" d="M45 1141q0 67 6 117t27.5 106t59 92t105 60t160.5 24t160.5 -24t105 -60t59.5 -92t28 -106.5t6 -116.5q0 -67 -6 -117.5t-28 -107t-59.5 -93t-105 -60.5t-160.5 -24t-160.5 24t-105 60.5t-59 93t-27.5 107t-6 117.5zM274 1141q0 -123 24.5 -173t104.5 -50t103.5 50 t23.5 173t-23.5 172t-103.5 49t-104.5 -50t-24.5 -171zM315 96q0 9 4 13l1027 1400q3 9 16 9q5 0 10 -5l135 -83q11 -7 11 -17l-5 -10l-1026 -1403q-6 -6 -16 -6q-8 0 -10 2l-137 86q-9 3 -9 14zM1073 373q0 67 6 117.5t28 107t59.5 92.5t105 60t160.5 24t160.5 -24t105 -60 t59 -92.5t27.5 -107t6 -117.5q0 -46 -3 -83t-12 -80t-24.5 -75.5t-42.5 -64t-64 -52t-91 -33t-121 -12.5q-93 0 -160.5 24t-105 60t-59.5 92.5t-28 107t-6 116.5zM1303 373q0 -122 24.5 -171.5t104.5 -49.5t104.5 49.5t24.5 171.5q0 123 -24.5 173t-104.5 50t-104.5 -50 t-24.5 -173z" />
<glyph unicode="&#x26;" horiz-adv-x="1683" d="M129 406q0 78 22.5 138.5t57 97t83 61.5t92.5 35.5t95 15.5v57q-40 6 -76.5 16.5t-82.5 35.5t-79 59t-56 91t-23 128q0 93 34.5 165.5t88.5 115.5t129 70.5t147.5 37.5t151.5 10q130 0 221 -22q29 -6 29 -33q0 -9 -2 -23l-23 -153q-3 -29 -35 -29h-10q-65 10 -123 10 q-270 0 -270 -184q0 -130 157 -176q50 -15 161.5 -27t123.5 -14q6 -1 10.5 -3.5t6 -5t3.5 -6.5l1 -4v304q0 44 38 49l230 41q14 2 20 2q31 0 31 -37v-334l262 -27q33 -4 33 -28v-138q0 -26 -33 -30l-262 -23v-323q0 -65 27.5 -95t101.5 -30q62 0 145 16h3q22 0 28 -24 l27 -132q2 -10 2 -18q0 -24 -27 -33q-115 -37 -260 -37q-187 0 -276.5 78t-89.5 258v375q0 -1 -1 -3.5t-2 -4t-3 -4t-6 -4t-9 -2.5q-27 -3 -74.5 -8t-76.5 -8.5t-65.5 -9t-63.5 -11.5q-92 -22 -140.5 -66t-48.5 -127q0 -213 285 -213q48 0 94 6q14 2 18 2q17 0 24.5 -8 t10.5 -28l21 -160v-2q0 -31 -31 -41q-74 -19 -166 -19q-91 0 -171.5 11t-161.5 41.5t-138 77.5t-93 124.5t-36 178.5z" />
<glyph unicode="'" horiz-adv-x="489" d="M102 971v506q0 17 9.5 26.5t23.5 9.5h221q12 0 22.5 -9.5t10.5 -22.5v-4l-35 -506q-1 -15 -10.5 -25t-21.5 -10h-187q-14 0 -23.5 10t-9.5 25z" />
<glyph unicode="(" horiz-adv-x="718" d="M131 688q0 278 68.5 532.5t195.5 430.5q16 22 35 22h6q34 -17 43 -26q2 0 68.5 -40.5t66.5 -43.5q11 -4 11 -17q0 -6 -2 -8q-205 -341 -205 -850q0 -511 205 -852q2 -2 2 -10q0 -13 -13 -23l-155 -96q-4 -4 -21 -4q-2 -2 -6 -2q-17 0 -35 25q-127 174 -195.5 428.5 t-68.5 533.5z" />
<glyph unicode=")" horiz-adv-x="718" d="M92 1548q0 15 12 23l156 96q2 1 10.5 3t10.5 3h8q17 0 33 -22q127 -176 196.5 -431t69.5 -532q0 -278 -69.5 -532.5t-196.5 -429.5q-18 -25 -33 -25q-6 0 -8 2q-2 0 -11.5 5.5t-20 12t-11.5 7.5t-34.5 21.5t-66.5 41t-33 21.5q-10 7 -10 18q0 4 2 6q203 337 203 852 q0 513 -203 850q-4 4 -4 10z" />
<glyph unicode="*" horiz-adv-x="1615" d="M301 1028v152q0 34 35 34h6l303 -26l-203 196q-12 15 -12 27q0 14 16 27l132 94q11 8 24 8t31 -18l176 -242l176 242q13 18 31 18q11 0 22 -8l131 -94q19 -13 19 -27q0 -13 -14 -27l-201 -196l301 26h6q37 0 37 -34v-152q0 -35 -37 -35h-4l-301 15l201 -197 q14 -14 14 -27t-19 -26l-131 -92q-15 -11 -22 -11q-17 0 -31 19l-176 241l-176 -241q-19 -19 -31 -19q-6 0 -24 11l-129 92q-19 13 -19 26q0 12 12 27l199 197l-301 -15h-4q-37 0 -37 35z" />
<glyph unicode="+" d="M98 594v143q0 37 41 37h375v375q0 41 39 41h174q39 0 39 -41v-373h373q41 0 41 -39v-143q0 -39 -41 -39h-373v-373q0 -41 -39 -41h-174q-39 0 -39 41v373h-375q-41 0 -41 39z" />
<glyph unicode="," horiz-adv-x="790" d="M225 -186l45 471q3 26 31 26h236q28 0 28 -22v-2l-80 -473q-3 -27 -34 -27h-201q-11 0 -18 6.5t-7 16.5v4z" />
<glyph unicode="-" horiz-adv-x="858" d="M106 492v139q0 17 13 29t33 12h555q20 0 32.5 -11.5t12.5 -29.5v-139q0 -18 -14 -28.5t-31 -10.5h-555q-16 0 -31 10.5t-15 28.5z" />
<glyph unicode="." horiz-adv-x="790" d="M215 35v223q0 14 13.5 24.5t33.5 10.5h266q20 0 33.5 -10.5t13.5 -24.5v-223q0 -14 -13.5 -24.5t-33.5 -10.5h-266q-20 0 -33.5 10.5t-13.5 24.5z" />
<glyph unicode="/" horiz-adv-x="790" d="M59 -57q0 6 2 10l447 1673q7 21 29 21h8l166 -37q20 -6 20 -25q0 -6 -2 -8l-446 -1673q-7 -23 -29 -23q-6 0 -8 2l-166 37q-21 3 -21 23z" />
<glyph unicode="0" d="M102 537q0 73 5 130t19 118t38.5 105.5t65 86t96 67.5t135 41t178.5 15t178 -15t134.5 -41t96.5 -67.5t65 -86t38.5 -105.5t19.5 -118t5 -130q0 -72 -5 -129.5t-19.5 -118t-38.5 -105.5t-65 -86.5t-96.5 -67.5t-134.5 -41.5t-178 -15.5t-178.5 15.5t-135 41.5t-96.5 67.5 t-65 86.5t-38 105.5t-19 117.5t-5 130zM438 537q0 -59 1.5 -97.5t6 -79.5t13 -66t23 -48t36 -35.5t51.5 -19.5t70 -7q39 0 69 7t51 19.5t35.5 35.5t23 48t13 66t6 79.5t1.5 97.5q0 83 -3.5 132.5t-14.5 96.5t-33 71t-58.5 38t-91.5 14q-39 0 -69 -7t-51 -19t-35.5 -35.5 t-23 -48t-13 -65.5t-6 -79.5t-1.5 -97.5z" />
<glyph unicode="1" horiz-adv-x="720" d="M31 842v166q0 17 20 20l510 74h2q7 0 15 -11.5t8 -19.5v-1040q0 -13 -10 -22t-25 -9h-248q-15 0 -25 9t-10 22v774l-217 16q-20 0 -20 21z" />
<glyph unicode="2" horiz-adv-x="1245" d="M172 979v2q0 17 4.5 26.5t20.5 16.5q57 26 178 52t254 26q104 0 184.5 -19.5t130.5 -51.5t81.5 -77t43.5 -91.5t12 -100.5q0 -56 -10 -101.5t-33.5 -82t-48 -63t-67 -53t-75.5 -43.5t-89 -42l-248 -111v-37l596 23h2q13 0 21 -8.5t8 -16.5v-202q0 -9 -9 -17t-18 -8h-870 q-12 0 -21 8.5t-10 22.5v182q0 25 1 44.5t6.5 37t9 28.5t16.5 24.5t20 20.5t28.5 20.5t33.5 20.5t43.5 24t50.5 28l153 86q35 19 52 29t44 30t40 37.5t23.5 44t10.5 57.5q0 29 -6.5 51t-21.5 35t-29 21t-39.5 11t-42.5 4t-47 1q-38 0 -70.5 -2.5t-67.5 -10.5t-52.5 -12.5 t-61.5 -19t-59 -18.5q-13 -4 -21 -4q-25 0 -28 26z" />
<glyph unicode="3" horiz-adv-x="1175" d="M100 979q0 24 25 35q57 28 188 58t267 30q105 0 186 -22t131 -57.5t82 -85t44.5 -98.5t12.5 -104q0 -269 -274 -321v-58q43 -5 81.5 -16t82 -36t75 -61.5t52 -96.5t20.5 -136q0 -270 -221 -395.5t-662 -128.5h-22q-28 0 -37.5 11.5t-9.5 43.5v115q0 13 1.5 20.5t10 15 t23.5 9.5l22 2q95 8 165.5 18t136.5 26.5t110.5 41t78.5 59t50 81.5t16 108q0 40 -10 71.5t-26 53.5t-44.5 39t-55.5 27t-70 17.5t-77 11t-87 7.5q-29 2 -29 49v113q0 25 6.5 33t22.5 12q17 4 50 12t50.5 12.5t46.5 13t45.5 15t40 17.5t36.5 22t28.5 26t23.5 32t13.5 39 t5.5 47q0 50 -19 83.5t-53 49.5t-68 22t-78 6q-51 0 -101.5 -8.5t-80 -17.5t-73.5 -25t-58 -20q-12 -4 -22 -4q-9 0 -17.5 7t-9.5 17l-23 146q-2 10 -2 16z" />
<glyph unicode="4" horiz-adv-x="1427" d="M102 31v219q0 18 4 26l482 781q2 6 9 12t15 6h486q9 0 16.5 -7.5t7.5 -16.5v-828h176q12 0 20.5 -8.5t8.5 -21.5v-162q0 -13 -8.5 -22t-20.5 -9h-174v-387q0 -13 -7.5 -22t-18.5 -9h-258q-12 0 -20.5 9t-8.5 22v387h-682q-12 0 -19.5 8.5t-7.5 22.5zM375 223h438v643h-63 z" />
<glyph unicode="5" horiz-adv-x="1191" d="M131 -342q0 24 10 32.5t29 8.5q70 1 125.5 4.5t118.5 12.5t110 23.5t92.5 40t74 59t46 82.5t17.5 110q0 231 -260 231q-91 0 -269 -41l-18 -4h-4q-17 0 -35 20t-18 39l45 777q2 8 9.5 15t14.5 7h791q28 0 28 -31v-178q0 -14 -8 -23t-20 -9h-539l-18 -363q89 27 204 27 q205 0 319 -119t114 -344q0 -111 -35 -199t-87 -144.5t-135 -97t-155.5 -61t-173 -32t-162.5 -13.5t-149 -2h-13q-26 0 -37.5 9.5t-11.5 35.5v127z" />
<glyph unicode="6" horiz-adv-x="1275" d="M102 715q0 151 27 274.5t74 213t118 158t152 112t183.5 71.5t205 39t223.5 12h2q26 0 36 -11t10 -38v-131q0 -27 -9.5 -35t-33.5 -10q-9 -1 -31 -2q-41 -2 -65.5 -4t-76 -8.5t-87 -15t-86.5 -26t-87.5 -39.5t-77.5 -56t-68 -75.5t-48.5 -99t-28.5 -124.5l8 3q8 3 23 8 t34 11t44.5 12.5t52 11.5t58 8t61.5 3q125 0 215.5 -36t143 -104.5t76.5 -158.5t24 -207q0 -139 -35 -236t-105 -154t-166.5 -82.5t-228.5 -25.5q-152 0 -255 42.5t-165.5 136t-89.5 229t-27 334.5zM432 559q0 -197 46 -285t163 -88q114 0 155.5 66.5t41.5 216.5 q0 147 -45 215t-152 68q-57 0 -113.5 -15t-87.5 -30q-8 -60 -8 -134v-14z" />
<glyph unicode="7" horiz-adv-x="1163" d="M47 864v180q0 14 8 22.5t21 8.5h979q11 0 19.5 -10.5t8.5 -20.5v-204q0 -34 -16 -62q-362 -557 -539 -1179q-8 -37 -34 -37h-273q-33 0 -33 24l2 13q83 291 245 639t341 593h-700q-12 0 -20.5 9.5t-8.5 23.5z" />
<glyph unicode="8" horiz-adv-x="1298" d="M102 414q0 70 20 127t51 93.5t72.5 62t81.5 37t81 14.5v61l-15 2q-22 3 -35.5 6t-44.5 13t-52.5 23t-49 37.5t-45 56t-29.5 79t-12 104.5q0 93 30 166t79 118t118.5 74t141.5 40.5t155 11.5t155 -11.5t141.5 -40.5t119 -74t79.5 -118t30 -166q0 -57 -12.5 -105t-29.5 -79 t-45 -55.5t-49 -37.5t-52.5 -23t-45 -13t-35.5 -6l-14 -2v-61q41 -3 81 -14.5t81 -37t72.5 -62t51 -93.5t19.5 -127q0 -223 -135 -332t-412 -109t-412 109t-135 332zM438 426q0 -135 56.5 -188.5t154.5 -53.5q97 0 153 53t56 189q0 74 -18 124t-51 74t-66 33t-76 9t-76 -9 t-65.5 -33t-50 -74t-17.5 -124zM451 1104q0 -127 50 -174t148 -47q46 0 79.5 9.5t61.5 32.5t42 68t14 111q0 57 -12 99.5t-30.5 66t-46 37.5t-52.5 18t-56 4t-56 -4t-53 -18t-46.5 -37.5t-30.5 -66t-12 -99.5z" />
<glyph unicode="9" horiz-adv-x="1273" d="M102 608q0 139 35 236t105 154t166.5 82.5t228.5 25.5q152 0 255 -42.5t165.5 -135.5t89.5 -228.5t27 -334.5q0 -151 -27 -274.5t-74 -213.5t-118 -158.5t-152.5 -112t-184 -71t-205 -39t-223.5 -12.5h-2q-27 0 -36 11t-9 38v131q0 27 9 35t32 10q9 1 30 2q41 2 66 4 t76.5 8.5t87 15.5t86.5 26t87.5 39t78 56.5t68.5 76t48.5 99t29.5 124.5l-8 -3q-8 -3 -22.5 -8.5t-34 -11.5t-45 -12t-52 -11.5t-58.5 -8.5t-63 -3q-125 0 -215 36t-142 105t-76 158.5t-24 206.5zM438 610q0 -147 44 -214.5t153 -67.5q56 0 113.5 15.5t85.5 29.5 q10 59 10 133v14q0 196 -46.5 284.5t-162.5 88.5q-115 0 -156 -66t-41 -217z" />
<glyph unicode=":" horiz-adv-x="790" d="M236 41v223q0 18 11.5 30.5t26.5 12.5h242q15 0 27 -12.5t12 -30.5v-223q0 -18 -11.5 -29.5t-27.5 -11.5h-242q-16 0 -27 11.5t-11 29.5zM236 811v223q0 18 11 29.5t27 11.5h242q16 0 27.5 -11.5t11.5 -29.5v-223q0 -18 -12 -30.5t-27 -12.5h-242q-15 0 -26.5 12.5 t-11.5 30.5z" />
<glyph unicode=";" horiz-adv-x="790" d="M219 -186l47 471q2 16 7.5 21t23.5 5h235q29 0 29 -18v-6l-82 -473q-1 -10 -3 -15t-8.5 -8.5t-18.5 -3.5h-201q-29 0 -29 23v4zM250 811v223q0 18 11.5 29.5t27.5 11.5h243q16 0 27.5 -11.5t11.5 -29.5v-223q0 -18 -12 -30.5t-27 -12.5h-243q-15 0 -27 12.5t-12 30.5z " />
<glyph unicode="&#x3c;" d="M111 588v114q0 27 22 37l903 447q9 6 19 6q15 0 26 -18l84 -152q2 -4 2 -12q0 -20 -18 -29l-758 -334l758 -336q18 -9 18 -26q0 -11 -2 -15l-84 -151q-10 -17 -26 -17q-13 0 -19 4l-903 447q-22 13 -22 35z" />
<glyph unicode="=" d="M158 385v147q0 16 12.5 27.5t32.5 11.5h872q20 0 32.5 -11.5t12.5 -27.5v-147q0 -19 -14 -30t-31 -11h-872q-16 0 -30.5 11t-14.5 30zM158 791v147q0 16 12.5 27.5t32.5 11.5h872q20 0 32.5 -11.5t12.5 -27.5v-147q0 -18 -14 -28.5t-31 -10.5h-872q-15 0 -30 11t-15 28z " />
<glyph unicode="&#x3e;" d="M111 285q0 17 18 26l758 336l-758 334q-18 9 -18 29q0 8 2 12l84 152q11 18 26 18q10 0 19 -6l903 -447q22 -10 22 -37v-114q0 -22 -22 -35l-903 -447q-6 -4 -19 -4q-16 0 -26 17l-84 151q-2 4 -2 15z" />
<glyph unicode="?" d="M141 1440q0 26 29 35q222 65 440 65q53 0 100.5 -3.5t102.5 -14t100.5 -27.5t89 -46t73 -67t47.5 -93t18 -122q0 -51 -14.5 -95.5t-32.5 -74t-55 -63.5t-59 -49.5t-67 -46.5q-18 -12 -58.5 -37.5t-58 -39t-42 -38t-34 -52.5t-9.5 -65q0 -50 8 -110v-7q0 -30 -43 -30h-219 q-15 0 -22.5 4t-10 9t-4.5 17q-14 77 -14 146q0 51 12 93t29 71.5t53 61.5t65 52.5t84 55.5q36 23 54.5 36.5t45 38.5t38.5 52.5t12 60.5q0 154 -246 154q-46 0 -103.5 -7t-96 -14.5t-84 -17t-50.5 -10.5q-10 -2 -14 -2q-11 0 -17.5 4.5t-8.5 10t-5 15.5l-29 125 q-4 17 -4 25zM416 41v242q0 19 11 30t28 11h252q15 0 25.5 -11.5t10.5 -29.5v-242q0 -18 -10.5 -29.5t-25.5 -11.5h-252q-17 0 -28 11t-11 30z" />
<glyph unicode="@" horiz-adv-x="1953" d="M127 758q0 164 24.5 284t82.5 217.5t155.5 157.5t243 91.5t344.5 31.5t344.5 -31.5t243 -91.5t155.5 -157.5t82.5 -217.5t24.5 -284q0 -99 -10 -201q-2 -15 -16 -28t-34 -13h-98q-20 0 -32.5 14t-12.5 31v4q10 95 10 193q0 176 -30 291.5t-103 185.5q-142 139 -526 139 q-381 0 -522 -135q-74 -72 -104 -188t-30 -293q0 -114 11 -197t38.5 -155.5t75 -120t120.5 -82t174 -49.5t237 -15q101 0 219 15h6q20 0 32.5 -14.5t12.5 -30.5v-80q0 -19 -13 -30t-32 -13q-147 -13 -223 -13q-166 0 -294.5 21t-222.5 66t-158.5 108t-103 153t-55 195.5 t-16.5 241.5zM586 590q0 55 13.5 97t34.5 67.5t56 43.5t68 27t80 17l274 43v41q0 64 -35 82t-114 18q-97 0 -267 -45q-8 -2 -12 -2q-15 0 -20 20l-25 105v10q0 19 20 27q26 9 70 20t126.5 23t158.5 12q174 0 261 -55.5t87 -196.5v-438q0 -46 -8 -75t-30 -47t-47 -27.5 t-71 -20.5q-92 -21 -229 -21q-64 0 -111.5 4t-103.5 20.5t-91.5 44.5t-60 80.5t-24.5 125.5zM842 594q0 -39 13.5 -64.5t37.5 -37t46 -15.5t50 -4q72 0 135 19v245l-174 -28q-56 -9 -82 -30.5t-26 -84.5z" />
<glyph unicode="A" horiz-adv-x="1613" d="M41 25l2 10l475 1452q3 10 13.5 18t21.5 8h510q27 0 37 -24l471 -1454q2 -6 2 -10q0 -10 -9.5 -17.5t-21.5 -7.5h-285q-12 0 -23 9t-15 22l-150 506h-528l-150 -510q-3 -11 -14 -19t-23 -8h-280q-12 0 -22.5 7.5t-10.5 17.5zM606 778h395l-153 502h-90z" />
<glyph unicode="B" horiz-adv-x="1595" d="M201 33v1448q0 13 10.5 22.5t24.5 9.5h727q249 0 361 -90t112 -280q0 -82 -24 -142.5t-70 -98t-101 -58.5t-129 -33v-68q72 -6 126.5 -19t103 -38.5t79.5 -63t48.5 -95t17.5 -132.5q0 -395 -553 -395h-698q-14 0 -24.5 10t-10.5 23zM539 233h340q138 0 198 52t60 147 q0 83 -20.5 127.5t-75 67.5t-158.5 26l-344 13v-433zM539 872l340 17q112 5 163.5 51.5t51.5 153.5q0 99 -50.5 142.5t-156.5 43.5h-348v-408z" />
<glyph unicode="C" horiz-adv-x="1443" d="M129 760q0 209 37 352t121 238.5t218 138.5t331 43q268 0 481 -72q39 -13 39 -41l-2 -14l-31 -156q-6 -24 -33 -24q-12 0 -18 2q-202 53 -375 53q-103 0 -176 -19.5t-121 -56.5t-75.5 -102t-38.5 -145.5t-11 -196.5q0 -145 17.5 -238.5t64.5 -161.5t129 -97.5t211 -29.5 q53 0 116 7.5t103.5 15.5t93 19.5t60.5 13.5q10 2 20 2q27 0 33 -27l31 -151q2 -11 2 -17q0 -26 -39 -39q-204 -69 -481 -69q-197 0 -331 43.5t-218 139t-121 238.5t-37 351z" />
<glyph unicode="D" horiz-adv-x="1693" d="M201 33v1448q0 13 9.5 22.5t22.5 9.5h639q197 0 330 -43t214 -137.5t116 -233t35 -341.5q0 -204 -35 -343t-116 -234t-214 -138t-330 -43h-639q-13 0 -22.5 9.5t-9.5 23.5zM539 236h297q112 0 181 21.5t116.5 80.5t66.5 159t19 261q0 162 -18.5 262t-66 158.5t-116.5 80 t-182 21.5h-297v-1044z" />
<glyph unicode="E" horiz-adv-x="1415" d="M201 33v1448q0 13 10.5 22.5t24.5 9.5h1001q14 0 23.5 -8.5t9.5 -21.5v-187q0 -13 -9.5 -22.5t-23.5 -9.5h-698v-363h667q14 0 23.5 -9t9.5 -22v-188q0 -13 -9.5 -22t-23.5 -9h-667v-405h698q15 0 25 -9t10 -22v-184q0 -13 -10 -22t-25 -9h-1001q-14 0 -24.5 10t-10.5 23 z" />
<glyph unicode="F" horiz-adv-x="1286" d="M201 33v1448q0 13 10.5 22.5t24.5 9.5h952q15 0 25 -8.5t10 -21.5v-189q0 -13 -10 -21.5t-25 -8.5h-649v-453h583q14 0 23.5 -9t9.5 -22v-188q0 -13 -9.5 -22t-23.5 -9h-583v-528q0 -13 -10.5 -23t-24.5 -10h-268q-14 0 -24.5 10t-10.5 23z" />
<glyph unicode="G" horiz-adv-x="1642" d="M129 756q0 422 173 603t577 181q309 0 555 -84q39 -12 39 -41l-3 -16l-32 -148q-5 -26 -35 -26l-17 2q-4 1 -60.5 14.5t-101.5 23t-124 18.5t-154 9q-103 0 -175 -14t-131 -49.5t-93.5 -97t-53 -155.5t-18.5 -226t17.5 -225.5t50.5 -155t89.5 -97t126 -49.5t169.5 -14 q48 0 100.5 4.5t80.5 8.5l28 5v400l-238 30q-13 2 -22 10t-9 19v176q0 10 9.5 18.5t21.5 8.5h535q14 0 23 -9t9 -22v-645q0 -88 -24.5 -129.5t-104.5 -63.5q-71 -20 -193.5 -33.5t-228.5 -13.5q-152 0 -267.5 18t-204 58.5t-147.5 101t-96.5 150t-54 199.5t-16.5 256z" />
<glyph unicode="H" horiz-adv-x="1753" d="M201 31v1446q0 25 30 28l277 35h4q13 0 20 -9t7 -20v-606h673v572q0 24 33 28l277 35h4q11 0 18.5 -9t7.5 -20v-1480q0 -13 -9 -22t-23 -9h-273q-14 0 -24.5 9t-10.5 22v620h-673v-620q0 -13 -9.5 -22t-23.5 -9h-273q-14 0 -23 9t-9 22z" />
<glyph unicode="I" horiz-adv-x="739" d="M201 31v1446q0 25 30 28l277 35h4q13 0 20 -9t7 -20v-1480q0 -13 -9.5 -22t-23.5 -9h-273q-14 0 -23 9t-9 22z" />
<glyph unicode="J" horiz-adv-x="745" d="M-119 -248q0 23 7.5 31.5t31.5 9.5l115 6q32 2 50.5 4t42.5 8t36.5 16.5t25.5 28t18 45t5 64.5v1508q0 29 33 32l272 35h6q12 0 19.5 -9t7.5 -20v-1538q0 -115 -32.5 -194t-94 -121t-134 -59t-169.5 -17q-137 0 -199 10q-14 2 -21.5 5t-13.5 12t-6 26v117z" />
<glyph unicode="K" horiz-adv-x="1521" d="M201 31v1452q0 13 9 21.5t23 8.5h273q14 0 23.5 -8.5t9.5 -21.5v-596h96l446 608q13 18 33 18h2l324 -4q9 0 17.5 -8t8.5 -18q0 -12 -6 -21l-538 -690l581 -725q6 -8 6 -20q0 -10 -8.5 -18.5t-17.5 -8.5h-346q-27 0 -41 18l-461 619h-96v-606q0 -13 -9.5 -22t-23.5 -9 h-273q-14 0 -23 9t-9 22z" />
<glyph unicode="L" horiz-adv-x="1284" d="M201 31v1446q0 25 30 28l277 35h4q13 0 20 -9t7 -20v-1253h665q15 0 25 -9t10 -22v-196q0 -13 -10 -22t-25 -9h-971q-14 0 -23 9t-9 22z" />
<glyph unicode="M" horiz-adv-x="2193" d="M147 35v2l121 1438q1 17 13.5 27.5t29.5 10.5h529q16 0 28 -11t17 -27l215 -863h12l217 863q11 38 45 38h502q17 0 29.5 -10.5t13.5 -27.5l125 -1438v-2q0 -15 -12 -25t-29 -10h-258q-17 0 -29 11t-12 26l-72 1241h-63l-279 -977q-12 -37 -43 -37h-319q-33 0 -45 39 l-260 975h-66l-86 -1241q-2 -16 -13 -26.5t-28 -10.5h-240q-18 0 -30.5 10t-12.5 25z" />
<glyph unicode="N" horiz-adv-x="1812" d="M201 31v1452q0 12 10.5 21t24.5 9h550q30 0 41 -28l435 -1292h32l-16 1286q0 34 45 34h242q23 0 35 -7.5t12 -28.5v-1446q0 -13 -10 -22t-25 -9h-537q-13 0 -24.5 9.5t-14.5 23.5l-423 1227h-64l23 -1229q0 -13 -9.5 -22t-23.5 -9h-271q-14 0 -23 9t-9 22z" />
<glyph unicode="O" horiz-adv-x="1722" d="M129 756q0 107 9 194t31 169.5t58 145.5t92.5 116t132 87t178.5 53t230 19q149 0 264 -24.5t195 -73.5t134 -114.5t84.5 -157t43 -190t12.5 -224.5q0 -152 -18 -265t-66.5 -214.5t-129.5 -165.5t-211 -101t-308 -37q-127 0 -230 19t-178.5 53t-132 87t-92.5 116 t-58 145.5t-31 169t-9 193.5zM477 758q0 -101 4.5 -169.5t18.5 -135.5t40 -108t68.5 -73.5t104.5 -46.5t147 -14q73 0 129 11.5t97 32t69.5 56.5t46 76.5t27 101.5t13 122t3.5 147t-3.5 147t-13 122t-27 101.5t-45.5 76.5t-69 56.5t-97.5 32t-129.5 11.5q-85 0 -147 -14 t-104.5 -46.5t-68.5 -73.5t-40 -108t-18.5 -135.5t-4.5 -169.5z" />
<glyph unicode="P" horiz-adv-x="1513" d="M201 31v1450q0 13 10.5 22.5t24.5 9.5h729q263 0 376 -116q109 -112 109 -348t-113 -355q-120 -123 -426 -123l-372 2v-542q0 -13 -9.5 -22t-23.5 -9h-273q-14 0 -23 9t-9 22zM539 786l254 9q102 3 161 15.5t93 45.5q53 53 53 191q0 130 -56 180q-35 32 -92 42.5 t-153 10.5h-260v-494z" />
<glyph unicode="Q" horiz-adv-x="1722" d="M129 756q0 107 9 194t31 169.5t58 145.5t92.5 116t132 87t178.5 53t230 19q149 0 264 -24.5t195 -73.5t134 -114.5t84.5 -157t43 -190t12.5 -224.5q0 -140 -15 -247t-55.5 -205t-108.5 -163.5t-176 -109t-255 -54.5l31 -149h358q14 0 23.5 -9t9.5 -22v-180 q0 -13 -9.5 -22t-23.5 -9h-315q-49 0 -90.5 13.5t-71.5 33t-56 53.5t-42 63.5t-32 75.5t-24 76t-20 79q-119 11 -211.5 42.5t-157 83t-108.5 116t-69 151t-35.5 178t-10.5 205.5zM477 758q0 -101 4.5 -169.5t18.5 -135.5t40 -108t68.5 -73.5t104.5 -46.5t147 -14 q73 0 129 11.5t97 32t69.5 56.5t46 76.5t27 101.5t13 122t3.5 147t-3.5 147t-13 122t-27 101.5t-45.5 76.5t-69 56.5t-97.5 32t-129.5 11.5q-85 0 -147 -14t-104.5 -46.5t-68.5 -73.5t-40 -108t-18.5 -135.5t-4.5 -169.5z" />
<glyph unicode="R" horiz-adv-x="1630" d="M201 31v1450q0 13 10.5 22.5t24.5 9.5h704q124 0 216 -21t161.5 -68.5t105 -130t35.5 -199.5q0 -168 -79 -257.5t-271 -111.5v-57q62 -3 107.5 -10.5t87 -23t69.5 -40.5t50 -63t33.5 -91t14.5 -123l13 -284q0 -14 -9 -23.5t-22 -9.5h-274q-15 0 -24 8.5t-11 22.5l-21 354 q-2 47 -20.5 81.5t-45.5 54.5t-69 32t-81.5 16.5t-92.5 5.5l-274 9v-553q0 -13 -9.5 -22t-23.5 -9h-273q-14 0 -23 9t-9 22zM539 793l292 14q144 6 212.5 56t68.5 175q0 127 -55.5 184.5t-188.5 57.5h-329v-487z" />
<glyph unicode="S" horiz-adv-x="1443" d="M139 1073q0 107 30 188t82 132.5t128 84t160.5 45.5t187.5 13q108 0 224 -16t172 -29t94 -25q40 -12 40 -45v-2l-30 -164q-6 -26 -33 -26l-16 2q-16 3 -70.5 15t-82.5 17.5t-76.5 13.5t-94 11.5t-92.5 3.5q-60 0 -106 -7t-89 -25.5t-66.5 -56.5t-23.5 -95q0 -26 5 -47 t17.5 -37.5t25 -29t35.5 -23t40 -17.5t48.5 -14t50.5 -11t56.5 -11t57.5 -11l33 -6q171 -34 246 -67q161 -71 206 -233q19 -70 19 -159q0 -104 -32.5 -185t-88 -133t-133.5 -85.5t-162 -47.5t-182 -14q-124 0 -252 18t-187.5 32.5t-91.5 25.5q-34 12 -34 45v4l28 158 q5 33 35 33l19 -2q4 -1 43.5 -11t79 -18.5t93.5 -18.5t113 -16t111 -6q293 0 293 199q0 38 -10 66.5t-31.5 48.5t-45.5 33t-62.5 23t-71.5 16t-84 14q-18 3 -27 4q-55 9 -95.5 17t-95.5 25t-95 37.5t-82.5 55t-69 76.5t-43.5 103t-17 134z" />
<glyph unicode="T" horiz-adv-x="1376" d="M25 1296v187q0 12 9.5 21t22.5 9h1264q13 0 23 -9t10 -21v-187q0 -13 -9.5 -22.5t-23.5 -9.5h-463v-1233q0 -13 -9.5 -22t-23.5 -9h-272q-14 0 -23.5 9t-9.5 22v1235h-463q-14 0 -23 8.5t-9 21.5z" />
<glyph unicode="U" horiz-adv-x="1675" d="M180 520v955q0 25 31 28l276 37h5q13 0 19.5 -8.5t6.5 -20.5v-1007q0 -73 14 -124t49 -91t99 -59t160 -19q173 0 245 68.5t72 212.5v983q0 24 33 28l274 37h6q12 0 19.5 -9t7.5 -20v-987q0 -282 -161 -416.5t-498 -134.5q-329 0 -493.5 129t-164.5 418z" />
<glyph unicode="V" horiz-adv-x="1560" d="M47 1481q0 12 8.5 22t20.5 10h286q41 0 48 -32l342 -1248h82l325 1248q6 19 16.5 25.5t30.5 6.5h281q10 0 18 -10t8 -22v-4l-430 -1444q-3 -14 -13 -23.5t-23 -9.5h-510q-26 0 -37 33l-451 1435q-2 7 -2 13z" />
<glyph unicode="W" horiz-adv-x="2342" d="M78 1470v5q0 15 9.5 26.5t25.5 11.5h270q22 0 33 -6t14 -26l211 -1239h64l229 1114q3 16 14 26.5t27 10.5h418q16 0 28 -11t15 -26l219 -1114h61l215 1239q4 20 15 26t34 6h252q16 0 24.5 -10.5t8.5 -23.5v-6l-291 -1438q-8 -35 -41 -35h-497q-16 0 -28 10.5t-15 24.5 l-226 1108l-231 -1108q-8 -35 -41 -35h-485q-16 0 -28 10.5t-15 24.5z" />
<glyph unicode="X" horiz-adv-x="1544" d="M23 37q0 4 2 6l505 739l-473 682q-2 4 -2 13q0 12 11 24t18 12h324q18 0 27 -6.5t20 -25.5l325 -520l307 520q10 20 19.5 26t28.5 6h292q14 0 21.5 -9t7.5 -21q0 -11 -4 -17l-448 -669l512 -754q6 -9 6 -16q0 -11 -9 -19t-22 -8h-332q-27 0 -39 20l-364 596l-369 -596 q-12 -20 -39 -20h-299q-13 0 -19.5 12.5t-6.5 24.5z" />
<glyph unicode="Y" horiz-adv-x="1507" d="M4 1481q0 13 10 22.5t21 9.5h319q20 0 29 -6.5t20 -25.5l371 -641l356 641q10 20 19.5 26t28.5 6h299q14 0 21 -9t7 -21q0 -11 -4 -17l-569 -895v-540q0 -13 -10 -22t-25 -9h-270q-15 0 -25 9t-10 22v536l-584 897q-4 6 -4 17z" />
<glyph unicode="Z" horiz-adv-x="1435" d="M98 1298v185q0 14 9 22t24 8h1149q13 0 23 -9t10 -21v-185q0 -19 -15 -45l-784 -1005h791q14 0 23 -9t9 -22v-186q0 -13 -9 -22t-23 -9h-1164q-13 0 -22.5 9.5t-9.5 21.5v168q0 34 20 57l770 1010h-768q-15 0 -24 9t-9 23z" />
<glyph unicode="[" horiz-adv-x="763" d="M158 -164v1702q0 34 26 41l355 94q4 2 10 2q22 0 29 -20l57 -139q2 -4 2 -11q0 -21 -19 -26l-186 -78v-1428l186 -77q7 -2 13 -9.5t6 -15.5q0 -6 -2 -10l-57 -142q-7 -20 -27 -20q-8 0 -12 2l-355 94q-26 7 -26 41z" />
<glyph unicode="\" horiz-adv-x="675" d="M-100 1573q0 18 18 24l188 70q2 0 6.5 1t6.5 1q17 0 24 -18l631 -1788q2 -2 2 -8q0 -18 -20 -27l-189 -68q-2 -2 -10 -2q-21 0 -27 19l-628 1786q-2 4 -2 10z" />
<glyph unicode="]" horiz-adv-x="763" d="M129 -129q0 21 16 25l189 77v1428l-187 78q-18 5 -18 26q0 7 2 11l55 139q10 20 29 20q8 0 12 -2l355 -94q26 -7 26 -41v-1702q0 -34 -26 -41l-357 -94q-4 -2 -10 -2q-19 0 -29 20l-55 142q-2 4 -2 10z" />
<glyph unicode="^" horiz-adv-x="1273" d="M76 664q0 8 4 16l440 811q14 22 43 22h148q29 0 43 -22l440 -811q4 -8 4 -16q0 -16 -18 -25l-164 -74q-8 -4 -19 -4q-17 0 -26 19l-334 680l-334 -680q-9 -19 -27 -19q-10 0 -18 4l-164 74q-18 9 -18 25z" />
<glyph unicode="_" horiz-adv-x="1110" d="M0 -315h1110v-131h-1110v131z" />
<glyph unicode="`" horiz-adv-x="770" d="M152 1440q0 5 6 14l96 127q7 10 18 10q7 0 15 -4l321 -227q8 -5 8 -17q0 -5 -6 -14l-86 -117q-7 -10 -18 -10q-8 0 -14 4l-330 217q-10 7 -10 17z" />
<glyph unicode="a" horiz-adv-x="1218" d="M94 324q0 55 10.5 99t26 74.5t42 54.5t50.5 38t61 25.5t62.5 16.5t65.5 11l356 57v56q0 46 -9.5 71t-39.5 39q-43 21 -146 21q-38 0 -78.5 -4t-82.5 -12t-68 -13.5t-65 -15.5t-43 -11q-16 -4 -21 -4q-19 0 -22 19l-31 135q-2 8 -2 16q0 21 24 31q56 22 185 48t272 26 q206 0 311 -60q72 -39 101.5 -104.5t29.5 -159.5v-563q0 -58 -10 -94.5t-37.5 -59.5t-59 -35t-91.5 -26q-128 -27 -291 -27q-58 0 -103.5 2.5t-99.5 11.5t-94.5 24t-80 41.5t-65.5 62.5t-41.5 89t-15.5 120zM406 328q0 -41 13 -71t32 -46t47.5 -25t51.5 -11.5t52 -2.5 q90 0 168 23v317l-219 -35q-37 -6 -57 -11.5t-43.5 -20.5t-34 -44t-10.5 -73z" />
<glyph unicode="b" horiz-adv-x="1253" d="M147 201v1251q0 44 37 49l234 39h10q35 0 35 -35v-321l-23 -127q142 45 277 45q238 0 340 -123t102 -424q0 -103 -8.5 -179.5t-30 -144.5t-58.5 -114t-93.5 -79.5t-136 -49t-185.5 -15.5q-235 0 -383 50q-42 13 -66 28.5t-35 40t-13.5 46t-2.5 63.5zM463 203 q72 -17 158 -17q53 0 87.5 8.5t61.5 30t40.5 63t20.5 103.5t7 156q0 91 -5.5 149t-17 97.5t-35 59t-54 27t-79.5 7.5q-37 0 -83 -6.5t-74 -13.5l-27 -7v-657z" />
<glyph unicode="c" horiz-adv-x="1060" d="M94 541q0 117 14.5 203t50 156t94.5 113t147.5 66t209.5 23q108 0 211 -16.5t142 -36.5q24 -12 24 -35v-10l-26 -127q-6 -25 -31 -25l-12 2q-129 33 -234 33q-156 0 -214 -75.5t-58 -268.5q0 -195 58 -271.5t214 -76.5q109 0 234 32q8 2 12 2q26 0 31 -26l26 -125v-10 q0 -21 -24 -33q-38 -21 -140.5 -37t-212.5 -16q-121 0 -209.5 23t-147.5 66t-94.5 112.5t-50 155.5t-14.5 202z" />
<glyph unicode="d" horiz-adv-x="1253" d="M94 528q0 112 11.5 196.5t41.5 158t79.5 120t127 73t183.5 26.5q49 0 100.5 -5.5t82 -11.5t61 -13t32.5 -7l-22 125v262q0 44 38 49l232 39h12q35 0 35 -35v-1325q0 -26 -3 -44.5t-14 -42.5t-37 -42.5t-67 -30.5q-159 -47 -352 -47q-155 0 -254.5 26t-165.5 91t-93.5 170 t-27.5 268zM414 547q0 -82 5 -140.5t17.5 -99t28.5 -64t43.5 -36.5t56 -17t72.5 -4q36 0 74.5 5t58.5 11l21 5v663q-90 19 -166 19q-43 0 -70 -3.5t-53.5 -16t-41 -35t-26 -61t-16 -93.5t-4.5 -133z" />
<glyph unicode="e" horiz-adv-x="1222" d="M94 532q0 154 25 258t84.5 176t158.5 104t248 32q290 0 408 -139q102 -123 102 -408l-2 -98q0 -54 -49 -54h-661q0 -63 21 -103.5t67 -70.5q74 -45 221 -45q30 0 61 2.5t54 6t51.5 10t43 10t39 10.5t29.5 8q9 2 13 2q23 0 30 -26l27 -117q2 -8 2 -16q0 -22 -23 -33 q-166 -68 -380 -68q-152 0 -257.5 29.5t-176.5 96t-103.5 172.5t-32.5 261zM408 594h401v12q0 83 -14 146q-17 78 -59.5 109.5t-121.5 31.5q-94 0 -137 -31t-57 -102q-8 -40 -12 -166z" />
<glyph unicode="f" horiz-adv-x="870" d="M35 881v163q0 13 9.5 22t23.5 9h157v139q0 164 86 245t264 81q159 0 275 -35q22 -7 22 -30v-7l-22 -139q-5 -26 -31 -26q-119 14 -145 14q-74 0 -103 -23q-28 -25 -28 -88v-131h260q14 0 23.5 -9t9.5 -22v-163q0 -13 -9.5 -22t-23.5 -9h-260v-819q0 -14 -9 -22.5 t-24 -8.5h-250q-14 0 -24.5 9t-10.5 22v819h-157q-14 0 -23.5 9t-9.5 22z" />
<glyph unicode="g" horiz-adv-x="1271" d="M100 -199q0 34 7 62.5t17.5 48t28 35.5t32 25t38 17.5t36.5 11.5t36.5 8t30.5 7v33q-10 2 -34.5 6.5t-35 7t-31 9t-30 13.5t-23 20t-19.5 29t-11 39t-5 52q0 40 13 70t30.5 47t52 30t60.5 18t74 13q-31 8 -52.5 15t-59.5 30t-62 53t-43 84.5t-19 123.5q0 211 122.5 302 t360.5 91q58 0 106 -5.5t70 -10.5t70 -17q50 -14 101 -14q52 0 98 12q16 4 106 45q9 4 19 4q16 0 22 -20l49 -160q5 -15 5 -16q0 -12 -17 -23q-60 -43 -143 -43q-16 0 -86 12q32 -26 58 -73.5t26 -110.5q0 -73 -22.5 -130t-62 -95t-96.5 -62t-121.5 -34.5t-142.5 -10.5h-123 q-94 0 -94 -84q0 -49 34.5 -64.5t119.5 -15.5h194q60 0 110 -6.5t102 -25t88 -49t58.5 -83t22.5 -122.5q0 -96 -39.5 -166.5t-112 -112t-167 -61t-213.5 -19.5q-276 0 -404.5 57t-128.5 203zM403 -152q0 -73 57.5 -101t180.5 -28q108 0 165.5 30.5t57.5 107.5 q0 35 -12.5 56.5t-38 31.5t-51 13t-66.5 3h-139q-31 0 -54.5 -4t-48 -15t-38 -34.5t-13.5 -59.5zM438 727q0 -105 41 -155t144 -50q102 0 142 50t40 155t-40 154t-142 49q-103 0 -144 -49t-41 -154z" />
<glyph unicode="h" horiz-adv-x="1261" d="M147 31v1421q0 44 37 49l234 39h10q35 0 35 -35v-319l-23 -127q179 43 320 43q183 0 274.5 -65.5t91.5 -227.5v-778q0 -14 -8.5 -22.5t-23.5 -8.5h-250q-15 0 -24 8.5t-9 22.5v725q0 70 -29 102.5t-100 32.5q-46 0 -101 -6.5t-87 -12.5l-31 -6v-835q0 -14 -9 -22.5 t-24 -8.5h-250q-15 0 -24 8.5t-9 22.5z" />
<glyph unicode="i" horiz-adv-x="669" d="M178 31v989q0 13 9.5 22t23.5 9h250q14 0 23.5 -9t9.5 -22v-989q0 -13 -9.5 -22t-23.5 -9h-250q-14 0 -23.5 9t-9.5 22zM180 1251v236q0 53 58 53h196q58 0 58 -53v-236q0 -29 -14 -41t-44 -12h-196q-30 0 -44 12t-14 41z" />
<glyph unicode="j" horiz-adv-x="661" d="M-96 -379l2 119q0 21 9.5 30t33.5 11l63 2q44 2 69.5 7t51 20.5t36.5 48t11 84.5v1077q0 14 9 22.5t24 8.5h248q15 0 24 -8.5t9 -22.5v-1083q0 -108 -30 -182t-87 -113.5t-124.5 -55.5t-158.5 -16q-44 0 -81 2t-53 4l-15 2q-14 2 -21.5 5t-13.5 11.5t-6 24.5v2zM180 1251 v236q0 53 58 53h196q58 0 58 -53v-236q0 -29 -14 -41t-44 -12h-196q-30 0 -44 12t-14 41z" />
<glyph unicode="k" horiz-adv-x="1208" d="M147 31v1421q0 44 37 49l232 39h10q37 0 37 -37v-862h65l287 420q12 14 29 14h4l289 -6q18 0 18 -16q0 -7 -4 -13l-363 -487l381 -524q5 -8 5 -13q0 -16 -21 -16h-322q-19 0 -28 14l-275 418h-65v-401q0 -13 -9.5 -22t-23.5 -9h-250q-15 0 -24 8.5t-9 22.5z" />
<glyph unicode="l" horiz-adv-x="720" d="M147 270v1188q0 21 6.5 30.5t26.5 12.5l238 39h10q35 0 35 -35v-1206q0 -50 23 -71t57 -21q23 0 65 6q11 2 15 2q11 0 14.5 -4.5t5.5 -15.5l27 -150v-2q0 -10 -5 -18t-11 -11l-5 -2q-68 -30 -196 -30q-152 0 -229 77.5t-77 210.5z" />
<glyph unicode="m" horiz-adv-x="1943" d="M147 31v893q0 56 37 82t133 49q80 20 192.5 33.5t207.5 13.5q178 0 272 -70q52 20 170 45t234 25q81 0 142.5 -8.5t114.5 -30t86.5 -57t52.5 -91t19 -131.5v-753q0 -14 -8.5 -22.5t-23.5 -8.5h-250q-15 0 -25 9t-10 22v710q0 82 -37 116t-111 34q-43 0 -95 -6.5 t-82 -12.5l-31 -6v-835q0 -13 -8.5 -22t-22.5 -9h-250q-15 0 -25 9t-10 22v710q0 83 -33 116.5t-106 33.5q-44 0 -98 -6.5t-86 -13.5l-33 -7v-833q0 -14 -9 -22.5t-24 -8.5h-250q-15 0 -24 8.5t-9 22.5z" />
<glyph unicode="n" horiz-adv-x="1261" d="M147 31v893q0 56 37 82t133 49q192 47 394 47q103 0 175.5 -14t128.5 -48.5t83.5 -98t27.5 -157.5v-753q0 -13 -9 -22t-23 -9h-250q-15 0 -25 9t-10 22v710q0 83 -33 116.5t-106 33.5q-43 0 -94.5 -6.5t-81.5 -13.5l-31 -7v-833q0 -14 -9 -22.5t-24 -8.5h-250 q-15 0 -24 8.5t-9 22.5z" />
<glyph unicode="o" horiz-adv-x="1228" d="M94 537q0 75 4.5 132t18 118.5t36.5 105.5t62 85.5t93 67.5t131.5 41t174.5 15t174 -15t131 -41t93.5 -67t63 -86t37 -106t18 -118.5t4.5 -131.5q0 -105 -9.5 -180.5t-41.5 -152.5t-87.5 -124.5t-152 -77t-230.5 -29.5q-97 0 -174.5 15t-131.5 41t-93 67.5t-62 86 t-36.5 105.5t-18 118t-4.5 131zM416 537q0 -60 1 -95.5t5 -78t12 -66t22 -48t35.5 -36.5t51.5 -19.5t71 -7.5q40 0 70 7.5t51.5 19.5t36 36t22.5 48.5t12.5 66t5.5 78t1 95.5t-1 96t-5.5 79t-13 66t-22.5 48t-35.5 36t-51.5 19.5t-70 7.5q-28 0 -51.5 -3t-42 -10.5 t-33 -16.5t-25.5 -24.5t-18.5 -30t-12.5 -39t-8 -45.5t-4.5 -54t-2 -60t-0.5 -69z" />
<glyph unicode="p" horiz-adv-x="1253" d="M147 -393v1259q0 56 17 90.5t43 49.5t76 32q201 64 426 64q85 0 152.5 -15t114.5 -40t81 -66.5t54 -85.5t31.5 -106t15 -119t3.5 -133q0 -69 -4 -125t-16 -116t-32.5 -106t-54 -88t-79 -69.5t-110.5 -43.5t-146 -16q-157 0 -279 37l23 -129v-223q0 -44 -37 -49l-233 -39 h-11q-35 0 -35 37zM463 205q72 -19 160 -19q53 0 87 8.5t61 30t41 63t21 103t7 154.5q0 94 -7.5 156t-20.5 99.5t-39.5 56.5t-54.5 24.5t-75 5.5q-36 0 -81 -6.5t-72 -13.5l-27 -7v-655z" />
<glyph unicode="q" horiz-adv-x="1253" d="M94 530q0 137 19.5 234.5t58 163.5t103 104t146 54t195.5 16q169 0 336 -41q83 -19 119.5 -59.5t36.5 -116.5v-1227q0 -44 -37 -49l-233 -39h-13q-34 0 -34 35v276l24 129q-137 -37 -276 -37q-82 0 -148 16t-112 42.5t-80 68.5t-54 87t-31.5 105t-15.5 114.5t-4 123.5z M414 547q0 -82 5 -140.5t17.5 -99t28.5 -64t43.5 -36.5t56 -17t72.5 -4q36 0 74.5 5t58.5 11l21 5v663q-78 19 -166 19q-63 0 -100 -12t-64 -49t-37 -103.5t-10 -177.5z" />
<glyph unicode="r" horiz-adv-x="800" d="M147 31v895q0 42 21 64t72 42q81 30 205.5 47.5t240.5 20.5h19q25 0 40 -10t15 -33v-150q0 -21 -6.5 -31t-30.5 -10q-164 0 -260 -22v-813q0 -14 -9 -22.5t-24 -8.5h-250q-15 0 -24 8.5t-9 22.5z" />
<glyph unicode="s" horiz-adv-x="1040" d="M102 66v2l25 141q5 24 25 24l14 -2q2 0 28 -7t52.5 -12.5t63.5 -12.5t77 -11t76 -4q76 0 124 27.5t48 89.5q0 21 -4.5 37.5t-10 28t-20 21t-23.5 14.5t-33 10.5t-35.5 8t-43.5 7.5q-122 21 -175 43q-175 73 -175 293q0 338 444 338q173 0 334 -47q22 -5 22 -31v-2 l-24 -139q-3 -21 -27 -21l-16 2q-1 0 -23 4.5t-43 8t-51 7.5t-62.5 6.5t-62.5 2.5q-176 0 -176 -107q0 -17 3 -31.5t11 -25.5t15 -19.5t22 -15t24 -11t29.5 -9t30 -6t34.5 -5.5t34 -6q40 -7 66.5 -13t63 -18t60.5 -27t50 -40t41.5 -56t25.5 -75.5t10 -99.5q0 -353 -446 -353 q-117 0 -227.5 21t-151.5 39q-1 0 -3.5 1.5t-3.5 2t-3.5 2t-4 3l-3.5 3.5t-3 5t-1.5 6.5t-0.5 7.5z" />
<glyph unicode="t" horiz-adv-x="866" d="M147 317v1031q0 41 37 49l234 41h10q35 0 35 -35v-328h272q14 0 23.5 -9t9.5 -22v-163q0 -13 -9.5 -22t-23.5 -9h-272v-518q0 -64 28.5 -94.5t102.5 -30.5q64 0 147 16h4q23 0 27 -22l27 -144v-2q0 -27 -27 -35q-112 -36 -258 -36q-188 0 -277.5 77t-89.5 256z" />
<glyph unicode="u" horiz-adv-x="1251" d="M137 360v654q0 44 37 49l234 39h10q35 0 35 -37v-717q0 -86 37.5 -126t136.5 -40q104 0 139 42.5t35 123.5v666q0 41 37 49l227 37q12 2 16 2q35 0 35 -37v-703q0 -205 -117 -297t-372 -92q-124 0 -212 19t-152 63.5t-95 120t-31 184.5z" />
<glyph unicode="v" horiz-adv-x="1171" d="M51 1040q0 35 37 35h244q21 0 31 -7t16 -28l192 -843h56l174 841q4 21 15 29t32 8h233q18 0 29.5 -10t11.5 -25q0 -10 -2 -18l-280 -989q-7 -33 -37 -33h-428q-28 0 -39 33l-283 989q-2 8 -2 18z" />
<glyph unicode="w" horiz-adv-x="1869" d="M66 1024v8q0 43 36 43h240q22 0 33 -7t14 -28l139 -843h56l133 790q7 33 39 33h387q32 0 39 -33l137 -790h55l127 843q3 20 13.5 27.5t31.5 7.5h219q18 0 28.5 -10.5t10.5 -28.5v-8l-219 -995q-7 -33 -37 -33h-430q-15 0 -25.5 9.5t-13.5 23.5l-141 755h-2l-148 -755 q-2 -14 -11.5 -23.5t-24.5 -9.5h-430q-30 0 -37 33z" />
<glyph unicode="x" horiz-adv-x="1224" d="M41 25q0 8 4 14l363 506l-324 483q-6 9 -6 19q0 11 8 19.5t16 8.5h248q20 0 28 -0.5t18 -6.5t18 -19l213 -344l188 342q11 20 23 24t41 4h243q8 0 16.5 -10t8.5 -21q0 -10 -4 -18l-326 -479l363 -508q4 -6 4 -14q0 -9 -6 -17t-15 -8h-280q-20 0 -33 20l-248 373 l-227 -373q-12 -20 -33 -20h-281q-9 0 -14.5 7.5t-5.5 17.5z" />
<glyph unicode="y" horiz-adv-x="1157" d="M51 1040q0 15 10 25t27 10h242q22 0 32.5 -7t14.5 -28l194 -843h56l174 841q4 21 15 29t32 8h237q17 0 28 -10t11 -25q0 -10 -2 -16l-323 -1141q-23 -79 -48.5 -130.5t-69.5 -96t-113 -65.5t-167 -21q-136 0 -208 14q-31 6 -31 37v2l2 127q1 13 3.5 20.5t11 14t22.5 6.5 h2q15 0 56 -2t65 -2q79 0 120 27t58 92l26 94h-153q-30 0 -37 33l-285 989q-2 8 -2 18z" />
<glyph unicode="z" horiz-adv-x="1079" d="M92 887v157q0 14 9 22.5t24 8.5h823q14 0 23.5 -9t9.5 -22v-131q0 -22 -16 -43l-488 -651h477q15 0 24 -8.5t9 -22.5v-157q0 -14 -9 -22.5t-24 -8.5h-821q-15 0 -24 8.5t-9 22.5v129q0 25 17 45l489 651h-481q-15 0 -24 8.5t-9 22.5z" />
<glyph unicode="{" horiz-adv-x="882" d="M117 616v136q0 14 10.5 25t26.5 14q76 10 98 51t22 155v541q0 33 27 41l356 94q2 2 11 2q19 0 28 -18l58 -141q0 -2 1 -6t1 -5q0 -18 -21 -26l-186 -78v-451q0 -102 -41.5 -154t-118.5 -85v-58q37 -16 62 -32.5t49.5 -43.5t36.5 -67.5t12 -95.5v-441l188 -77 q7 -2 13 -9.5t6 -15.5q0 -2 -1 -5t-1 -5l-58 -142q-10 -20 -28 -20q-1 0 -5 1t-6 1l-356 94q-27 8 -27 43v533q0 114 -22 155.5t-98 51.5q-16 3 -26.5 13.5t-10.5 24.5z" />
<glyph unicode="|" horiz-adv-x="589" d="M168 -289v1848q0 14 9.5 28.5t25.5 14.5h182q15 0 27 -12.5t12 -30.5v-1848q0 -18 -12 -30.5t-27 -12.5h-182q-16 0 -25.5 14.5t-9.5 28.5z" />
<glyph unicode="}" horiz-adv-x="882" d="M129 -129q0 21 16 25l189 77v441q0 55 12.5 95.5t37 67.5t49 43.5t61.5 32.5v58q-36 16 -61 32.5t-49.5 44t-37 68t-12.5 94.5v451l-187 78q-18 9 -18 26q0 7 2 11l55 141q9 18 29 18q8 0 12 -2l355 -94q26 -7 26 -41v-541q0 -114 22.5 -155t98.5 -51q16 -3 27.5 -14 t11.5 -25v-136q0 -14 -11.5 -24.5t-27.5 -13.5q-76 -10 -98.5 -51.5t-22.5 -155.5v-533q0 -36 -26 -43l-357 -94q-2 0 -5.5 -1t-4.5 -1q-19 0 -29 20l-55 142q-2 4 -2 10z" />
<glyph unicode="~" d="M152 616q0 13 16 25q159 115 283 115q67 0 188 -47q9 -4 46 -19t51 -20t39.5 -11t47.5 -6q81 0 195 82q10 10 20 10q16 0 23 -14l61 -133q4 -12 4 -18q0 -13 -16 -25q-159 -115 -283 -115q-67 0 -188 47q-9 4 -46 19t-51 20t-39.5 11t-47.5 6q-81 0 -195 -82 q-10 -10 -20 -10q-17 0 -23 14l-61 133q-4 12 -4 18z" />
<glyph unicode="&#xa1;" horiz-adv-x="718" d="M193 -371l36 973q0 11 8.5 19t20.5 8h211q12 0 20.5 -8t8.5 -19l37 -1028v-2q0 -31 -35 -31h-8l-261 39q-38 6 -38 45v4zM201 799v239q0 33 39 33h252q38 0 38 -33v-239q0 -19 -10.5 -30t-27.5 -11h-252q-16 0 -27.5 11.5t-11.5 29.5z" />
<glyph unicode="&#xa2;" horiz-adv-x="1183" d="M143 539q0 130 19 223.5t63.5 165.5t122 113t191.5 55v143q0 14 10 27.5t26 13.5h144q14 0 25.5 -11.5t11.5 -29.5v-141q82 -6 154 -21.5t106 -32.5q24 -12 24 -32q0 -7 -2 -11l-24 -127q-5 -24 -31 -24q-10 0 -14 2q-2 0 -30.5 7t-44.5 10t-45.5 8t-57.5 7.5t-56 2.5 q-156 0 -214 -76.5t-58 -269.5q0 -195 58 -271.5t214 -76.5q114 0 234 32q4 2 14 2q26 0 31 -24l24 -125q2 -4 2 -12q0 -21 -24 -33q-76 -37 -260 -53v-142q0 -18 -11.5 -29.5t-25.5 -11.5h-144q-16 0 -26 13.5t-10 27.5v146q-91 10 -159 39.5t-113 74.5t-73 112t-39.5 146 t-11.5 183z" />
<glyph unicode="&#xa3;" horiz-adv-x="1437" d="M127 31v176q0 9 0.5 13.5t4 10.5t11.5 9.5t21 5.5q260 43 260 266q0 60 -52.5 274t-52.5 320q0 103 29 181t77 125t119 76.5t145 40.5t165 11q221 0 436 -65q23 -7 23 -31v-2l-35 -180q-4 -19 -27 -19l-14 2q-4 1 -47 10.5t-78.5 16.5t-90 13.5t-99.5 6.5t-81.5 -3.5 t-77 -16t-67.5 -33t-45 -57t-18 -86.5q0 -48 16.5 -131.5t22.5 -98.5h405q14 0 23.5 -8.5t9.5 -21.5v-185q0 -13 -9.5 -21.5t-23.5 -8.5h-356q16 -58 16 -132q0 -39 -9 -74t-20 -57.5t-30 -44.5t-30.5 -31.5t-30 -23t-19.5 -14.5l670 8q13 0 21.5 -9.5t8.5 -23.5v-186 q0 -13 -9 -23t-21 -10h-1110q-13 0 -22 9.5t-9 21.5z" />
<glyph unicode="&#xa4;" horiz-adv-x="1554" d="M272 387q0 10 9 19l116 104q-37 84 -37 186q0 103 37 187l-116 104q-9 9 -9 19q0 11 11 22l133 135q11 11 22 11q12 0 21 -9l106 -98q93 41 213 41t213 -41l107 98q9 9 20 9q12 0 23 -11l133 -135q10 -10 10 -22q0 -11 -8 -19l-117 -104q37 -84 37 -187q0 -102 -37 -186 l117 -104q8 -8 8 -19q0 -12 -10 -22l-133 -136q-10 -10 -23 -10q-12 0 -20 8l-107 99q-93 -41 -213 -41t-213 41l-106 -99q-8 -8 -21 -8q-12 0 -22 10l-133 136q-11 11 -11 22zM582 696q0 -122 40.5 -171.5t155.5 -49.5t156 50t41 171q0 122 -41 172t-156 50t-155.5 -50 t-40.5 -172z" />
<glyph unicode="&#xa5;" horiz-adv-x="1538" d="M41 1470q0 15 11.5 29t27.5 14h301q38 0 53 -32l350 -652l336 652q9 19 20 25.5t31 6.5h289q16 0 26.5 -14t10.5 -29q0 -6 -2 -8l-401 -649h266q14 0 22.5 -8.5t8.5 -22.5v-139q0 -12 -13 -21.5t-18 -9.5h-1180q-13 0 -21.5 8.5t-8.5 22.5v139q0 14 8.5 22.5t21.5 8.5 h275l-410 647q-4 8 -4 10zM233 346v135q0 13 8.5 22t22.5 9h1012q14 0 22.5 -9t8.5 -22v-135q0 -13 -10 -22t-21 -9h-328v-284q0 -13 -9.5 -22t-23.5 -9h-272q-14 0 -24.5 9t-10.5 22v284h-344q-14 0 -22.5 8.5t-8.5 22.5z" />
<glyph unicode="&#xa6;" horiz-adv-x="641" d="M195 -315v696q0 15 9 28t25 13h183q16 0 27.5 -12t11.5 -31v-694q0 -18 -12 -30.5t-27 -12.5h-183q-16 0 -25 14.5t-9 28.5zM195 643v696q0 17 9 30t25 13h183q15 0 27 -12.5t12 -30.5v-694q0 -18 -12 -30.5t-27 -12.5h-183q-16 0 -25 13.5t-9 27.5z" />
<glyph unicode="&#xa7;" horiz-adv-x="1574" d="M176 500q0 51 13.5 95t32 73t48 54.5t51.5 39t53 25.5t42 15t28 7v51q-16 6 -31.5 12.5t-51.5 30.5t-61.5 53t-46 80.5t-20.5 112.5q0 114 47 195.5t132 125.5q135 70 381 70q98 0 226 -21t228 -49q25 -8 25 -34v-2l-29 -154q-6 -25 -22 -25l-27 5q-3 1 -60.5 13 t-97 19.5t-106 15t-123.5 7.5q-61 0 -106.5 -7.5t-83.5 -25.5t-58 -51.5t-20 -81.5q0 -18 3 -34t10.5 -28.5t14.5 -22.5t22 -18.5t24.5 -14.5t31 -11.5t32.5 -8.5t37.5 -7t38.5 -5.5t42 -5.5l151 -20q61 -8 105 -16t94.5 -22t85 -32t69 -46.5t54.5 -65t32.5 -87t12.5 -112.5 q0 -67 -25.5 -122t-57 -85.5t-76.5 -54.5t-66.5 -30.5t-45.5 -12.5v-51q13 -3 31.5 -10.5t53 -30.5t61 -53t47 -82t20.5 -115q0 -222 -180 -310q-134 -65 -387 -65q-166 0 -302.5 26.5t-205.5 53.5q-24 10 -24 33l2 18l28 135q6 31 29 31l27 -4q5 -1 34.5 -9t54.5 -14 t68.5 -15t83 -15t89.5 -10.5t96 -4.5q60 0 106 6.5t87 23t63 49t22 79.5q0 30 -9 53t-29 38.5t-41 26t-56.5 18t-62.5 11.5t-72 9l-150 18q-78 10 -135.5 23.5t-117.5 41t-97.5 65.5t-61.5 100t-24 143zM481 551q0 -149 209 -168l180 -18q38 4 73 14.5t71.5 30t58 54.5 t21.5 81q0 150 -197 168q-162 20 -180 20q-33 -1 -69.5 -10t-76 -27.5t-65 -56.5t-25.5 -88z" />
<glyph unicode="&#xa8;" horiz-adv-x="1116" d="M158 1323v158q0 14 11.5 23t29.5 9h235q19 0 31 -9t12 -23v-158q0 -12 -12.5 -21.5t-30.5 -9.5h-235q-18 0 -29.5 9t-11.5 22zM639 1323v158q0 14 12 23t31 9h236q18 0 29 -9t11 -23v-158q0 -13 -11 -22t-29 -9h-236q-18 0 -30.5 9.5t-12.5 21.5z" />
<glyph unicode="&#xa9;" horiz-adv-x="1933" d="M117 754q0 206 39 346.5t135 242.5t262 149.5t414 47.5t414 -47.5t262 -149.5t135 -242.5t39 -346.5q0 -136 -16.5 -241t-55.5 -195t-103 -152.5t-158 -106.5t-222 -65t-295 -21t-295 21t-222 65t-158 106.5t-103 152.5t-55.5 195t-16.5 241zM309 754q0 -178 29 -293 t102 -187q71 -71 197 -103t328 -32q195 0 319 29.5t197 95.5q80 72 111.5 190t31.5 302q0 182 -31.5 299.5t-111.5 187.5q-74 68 -198.5 99.5t-317.5 31.5q-199 0 -326 -34.5t-199 -106.5q-73 -72 -102 -187t-29 -292zM571 764q0 116 17.5 195.5t63 143t129.5 94t210 30.5 q83 0 161.5 -16.5t121.5 -34.5q20 -8 20 -25v-10l-18 -92q-4 -19 -25 -19q-1 0 -4.5 1t-5.5 1q-5 1 -28.5 7.5t-41 10.5t-42.5 9t-50.5 7.5t-48.5 2.5q-143 0 -193.5 -67.5t-50.5 -237.5t50.5 -237.5t193.5 -67.5q30 0 65.5 4.5t60 9.5t52.5 11.5t33 7.5q4 2 10 2 q22 0 25 -19l18 -90v-8q0 -17 -18 -25q-43 -22 -124.5 -36.5t-160.5 -14.5q-126 0 -210 30.5t-129.5 94t-63 143t-17.5 195.5z" />
<glyph unicode="&#xaa;" horiz-adv-x="966" d="M143 1071q0 34 7.5 62t19 47t32 34t38 24t47 16.5t50 11t54.5 8.5l209 33v20q0 30 -6.5 46t-28.5 26q-30 12 -102 12q-27 0 -60.5 -4t-56.5 -8t-63 -12t-56 -11q-10 -2 -16 -2q-13 0 -16 15l-17 86v2q0 3 0.5 6t2.5 5l3 3t4 2.5t4.5 2t5.5 2t5 1.5q164 41 295 41 q183 0 239 -61q35 -41 35 -136v-329q0 -68 -24.5 -95.5t-100.5 -44.5q-78 -16 -178 -16q-29 0 -47.5 0.5t-51.5 3t-55.5 8.5t-51.5 15.5t-48 25.5t-36.5 37.5t-26.5 53t-9 69.5zM147 651v74q0 12 9.5 20.5t23.5 8.5h586q14 0 23.5 -8.5t9.5 -20.5v-74q0 -13 -9.5 -21.5 t-23.5 -8.5h-586q-14 0 -23.5 8.5t-9.5 21.5zM322 1077q0 -32 12 -52.5t35.5 -29.5t45 -11.5t54.5 -2.5q74 0 131 16v189l-184 -29q-23 -4 -36 -7.5t-28.5 -11.5t-22.5 -23t-7 -38z" />
<glyph unicode="&#xab;" horiz-adv-x="1243" d="M111 592q0 13 8 24l350 478q11 14 25 14q11 0 20 -6l148 -84q14 -8 14 -25q0 -9 -6 -18l-297 -383l297 -383q6 -9 6 -19q0 -16 -14 -24l-148 -84q-9 -6 -20 -6q-14 0 -25 14l-350 477q-8 11 -8 25zM567 592q0 13 8 24l351 478q11 14 24 14q12 0 21 -6l147 -84 q15 -9 15 -25q0 -7 -7 -18l-297 -383l297 -383q7 -11 7 -19q0 -15 -15 -24l-147 -84q-9 -6 -21 -6q-13 0 -24 14l-351 477q-8 11 -8 25z" />
<glyph unicode="&#xac;" d="M113 618v142q0 18 12.5 29.5t32.5 11.5h962q21 0 33 -13t12 -26v-434q0 -14 -12.5 -26.5t-32.5 -12.5h-166q-19 0 -33 11.5t-14 29.5v248h-749q-15 0 -30 11t-15 29z" />
<glyph unicode="&#xad;" horiz-adv-x="858" d="M106 492v139q0 17 13 29t33 12h555q20 0 32.5 -11.5t12.5 -29.5v-139q0 -18 -14 -28.5t-31 -10.5h-555q-16 0 -31 10.5t-15 28.5z" />
<glyph unicode="&#xae;" horiz-adv-x="1933" d="M117 754q0 206 39 346.5t135 242.5t262 149.5t414 47.5t414 -47.5t262 -149.5t135 -242.5t39 -346.5q0 -136 -16.5 -241t-55.5 -195t-103 -152.5t-158 -106.5t-222 -65t-295 -21t-295 21t-222 65t-158 106.5t-103 152.5t-55.5 195t-16.5 241zM309 754q0 -178 29 -293 t102 -187q71 -71 197 -103t328 -32q195 0 319 29.5t197 95.5q80 72 111.5 190t31.5 302q0 182 -31.5 299.5t-111.5 187.5q-74 68 -198.5 99.5t-317.5 31.5q-199 0 -326 -34.5t-199 -106.5q-73 -72 -102 -187t-29 -292zM612 346v830q0 11 7.5 17.5t19.5 6.5h405 q148 0 226 -56.5t78 -189.5q0 -96 -45.5 -146t-155.5 -63v-34q88 -7 129 -29q72 -39 80 -172l8 -164q0 -10 -6.5 -16t-14.5 -6h-169q-19 0 -23 18l-12 209q-2 32 -16 53t-41 31.5t-52.5 14t-66.5 5.5l-140 7v-316q0 -9 -7 -15.5t-17 -6.5h-164q-10 0 -16.5 7t-6.5 15z M823 791l158 6q82 3 117 30.5t35 96.5q0 70 -35 98.5t-115 28.5h-160v-260z" />
<glyph unicode="&#xaf;" horiz-adv-x="978" d="M164 1452q0 12 7.5 18t23.5 11q131 43 294 43q164 0 295 -43q16 -5 23.5 -11t7.5 -18l-2 -18l-18 -109q-5 -25 -27 -25l-16 3q-13 2 -58 11t-69 13t-63 8t-73 4t-73 -4t-63 -8t-68 -13t-58 -11q-8 -3 -16 -3q-22 0 -27 25l-18 109q-2 12 -2 18z" />
<glyph unicode="&#xb0;" horiz-adv-x="876" d="M106 1233q-2 126 96 216.5t236 90.5q137 0 235.5 -90.5t98.5 -216.5q0 -127 -98.5 -217t-235.5 -90q-138 0 -235 89.5t-97 217.5zM279 1233q0 -64 47 -113t112 -49t113.5 49t48.5 113q0 60 -48.5 104.5t-115.5 44.5q-64 0 -110.5 -44.5t-46.5 -104.5z" />
<glyph unicode="&#xb1;" d="M147 41v139q0 17 13 29t33 12h892q20 0 34 -12t14 -29v-139q0 -19 -15.5 -30t-32.5 -11h-892q-15 0 -30.5 11.5t-15.5 29.5zM147 684v143q0 39 41 39h324v269q0 41 39 41h172q39 0 39 -41v-269h321q41 0 41 -39v-143q0 -37 -41 -37h-321v-268q0 -39 -39 -39h-174 q-39 0 -39 39v268h-322q-41 0 -41 37z" />
<glyph unicode="&#xb2;" horiz-adv-x="1112" d="M137 1458q0 21 27 31q51 20 148 35.5t210 15.5q193 0 286 -68.5t93 -220.5q0 -189 -266 -331l-250 -134v-32l489 8q14 0 25.5 -8t11.5 -25v-123q0 -35 -37 -35h-665q-17 0 -29 10t-12 25v189q0 70 57 112q19 15 82 53.5t117 69.5l53 31q12 7 40 23t39.5 23.5t33 21.5 t31 25t21 26.5t16 33t4.5 37.5q0 68 -44.5 93.5t-134.5 25.5q-107 0 -284 -47h-6q-29 0 -35 27l-19 90q-2 10 -2 18z" />
<glyph unicode="&#xb3;" horiz-adv-x="1087" d="M137 1454q0 21 27 31q47 18 149 36.5t209 18.5q168 0 266.5 -63.5t98.5 -196.5q0 -173 -203 -203v-33q112 -14 167.5 -65t55.5 -150q0 -62 -22 -110.5t-58 -79t-87 -50.5t-104.5 -28t-115.5 -8q-87 0 -180 12.5t-131 24.5q-25 11 -25 33v6l15 98q3 25 26 25q11 0 19 -2 q106 -25 233 -25q93 0 143 27t50 96q0 27 -9 47t-21.5 31.5t-35.5 20t-41.5 11.5t-48.5 7q-45 8 -102 14q-10 0 -22.5 8t-12.5 23v92q0 6 2 11.5t4.5 8.5t6.5 5t7 3t6.5 2t4.5 1q15 2 48.5 6.5t49.5 7.5q75 10 110 32.5t35 80.5q0 62 -42.5 85t-131.5 23q-35 0 -75.5 -5 t-65.5 -10t-71.5 -16t-61.5 -14h-15q-21 0 -28 27l-21 88q-2 10 -2 16z" />
<glyph unicode="&#xb4;" horiz-adv-x="770" d="M154 1343q0 12 8 17l321 227q8 4 15 4q11 0 18 -10l96 -127q6 -9 6 -14q0 -10 -10 -17l-329 -217q-6 -4 -15 -4q-11 0 -18 10l-86 117q-6 9 -6 14z" />
<glyph unicode="&#xb5;" horiz-adv-x="1263" d="M147 -395v1409q0 44 37 49l234 39h10q35 0 35 -35v-838q108 -39 219 -39q81 0 105 24.5t24 100.5v699q0 44 39 49l233 39h11q34 0 34 -35v-807q0 -159 -67.5 -223t-222.5 -64q-210 0 -404 66l29 -131v-250q0 -44 -37 -49l-233 -39h-11q-35 0 -35 35z" />
<glyph unicode="&#xb6;" horiz-adv-x="1538" d="M94 1028q0 119 26.5 205.5t68.5 137t107 80t129.5 39t149.5 9.5h377q35 0 35 -31v-1816q0 -46 -37 -51l-170 -31h-10q-37 0 -37 37v946q-154 -4 -174 -4q-81 0 -145 11t-126 43t-103 84t-66 138.5t-25 202.5zM385 1028q0 -68 12 -115t31.5 -75t55 -42.5t72 -19t93.5 -4.5 h84v508h-84q-48 0 -79.5 -2.5t-64 -11t-52.5 -25.5t-37 -44.5t-24 -69.5t-7 -99zM1139 -352v1808q0 45 35 53l172 31h10q15 0 26 -9t11 -28v-1810q0 -46 -37 -51l-170 -31h-10q-37 0 -37 37z" />
<glyph unicode="&#xb7;" horiz-adv-x="499" d="M98 473v215q0 19 11 30t28 11h228q15 0 25.5 -11.5t10.5 -29.5v-215q0 -18 -10.5 -29.5t-25.5 -11.5h-228q-17 0 -28 11t-11 30z" />
<glyph unicode="&#xb8;" horiz-adv-x="729" d="M154 -115q0 20 16 25q83 22 186 22q114 0 166.5 -43t52.5 -135t-52.5 -135t-166.5 -43q-99 0 -186 23q-16 5 -16 24l10 62q3 16 20 16h2q87 -14 119 -14q44 0 65 14.5t21 52.5t-21 53t-65 15q-25 0 -119 -15h-2q-17 0 -20 17z" />
<glyph unicode="&#xb9;" horiz-adv-x="882" d="M160 1368v98q0 30 30 33l342 41h3q13 0 22.5 -12t9.5 -27v-891q0 -18 -10 -28.5t-25 -10.5h-151q-15 0 -25 10.5t-10 28.5v717l-153 10q-18 2 -25.5 8t-7.5 23z" />
<glyph unicode="&#xba;" horiz-adv-x="964" d="M152 1200q0 41 2.5 73.5t11 69t23 64t40 53.5t60 43t84 27t112.5 10q87 0 149.5 -19.5t98 -49.5t56 -77.5t26.5 -91.5t6 -102q0 -59 -6 -103t-26.5 -91.5t-56 -78t-98 -50t-149.5 -19.5q-63 0 -112.5 10t-84 27t-60 43.5t-40 54t-23 64t-11 69.5t-2.5 74zM162 651v74 q0 12 9 20.5t22 8.5h587q14 0 23.5 -8.5t9.5 -20.5v-74q0 -13 -9.5 -21.5t-23.5 -8.5h-587q-12 0 -21.5 8.5t-9.5 21.5zM330 1200q0 -50 1.5 -76.5t10 -58.5t24.5 -47.5t46 -26t75 -10.5q44 0 73.5 10.5t46 26t24.5 47t10 59t2 76.5q0 48 -2 75t-10 58.5t-24.5 47t-46 26 t-73.5 10.5q-45 0 -75 -10.5t-46 -26t-24.5 -47t-10 -58t-1.5 -75.5z" />
<glyph unicode="&#xbb;" horiz-adv-x="1243" d="M111 190q0 10 6 19l297 383l-297 383q-6 9 -6 18q0 17 14 25l147 84q9 6 21 6q13 0 24 -14l351 -478q8 -11 8 -24q0 -14 -8 -25l-351 -477q-11 -14 -24 -14q-12 0 -21 6l-147 84q-14 8 -14 24zM567 190q0 10 6 19l297 383l-297 383q-6 9 -6 18q0 16 15 25l147 84 q9 6 21 6q13 0 24 -14l350 -478q9 -12 9 -24q0 -13 -9 -25l-350 -477q-11 -14 -24 -14q-12 0 -21 6l-147 84q-15 9 -15 24z" />
<glyph unicode="&#xbc;" horiz-adv-x="2248" d="M160 1368v98q0 30 30 33l342 41h3q13 0 22.5 -12t9.5 -27v-891q0 -18 -10 -28.5t-25 -10.5h-151q-15 0 -25 10.5t-10 28.5v717l-153 10q-18 2 -25.5 8t-7.5 23zM440 102v11l944 1396q3 9 15 9q2 0 5.5 -1t4.5 -1l135 -93q8 -8 8 -16q0 -2 -4 -10l-942 -1399q-6 -6 -16 -6 q-6 0 -10 2l-134 92q-6 2 -6 16zM1176 248v121q0 25 16 49l379 514q5 6 17 13t20 7h278q15 0 26 -11t11 -28v-530h107q18 0 29.5 -11t11.5 -26v-102q0 -15 -11.5 -26t-29.5 -11h-103v-168q0 -17 -10 -28t-25 -11h-143q-17 0 -27 11t-10 28v168h-500q-17 0 -26.5 11.5 t-9.5 29.5zM1389 383h323v410h-22z" />
<glyph unicode="&#xbd;" horiz-adv-x="2304" d="M160 1368v98q0 30 30 33l342 41h3q13 0 22.5 -12t9.5 -27v-891q0 -18 -10 -28.5t-25 -10.5h-151q-15 0 -25 10.5t-10 28.5v717l-153 10q-18 2 -25.5 8t-7.5 23zM440 102v11l944 1396q3 9 15 9q2 0 5.5 -1t4.5 -1l135 -93q8 -8 8 -16q0 -2 -4 -10l-942 -1399q-6 -6 -16 -6 q-6 0 -10 2l-134 92q-6 2 -6 16zM1327 887q0 21 27 31q51 20 148 35.5t210 15.5q193 0 286 -68.5t93 -220.5q0 -190 -266 -332l-250 -133v-33l489 8q37 0 37 -32v-123q0 -35 -37 -35h-665q-17 0 -29 10t-12 25v188q0 71 57 113q19 15 82 53t117 69l53 31q11 7 35 20.5t35 20 t30 19.5t28.5 21.5t22 22t18.5 25.5t10.5 28t4.5 34q0 68 -44 93.5t-134 25.5q-107 0 -284 -47h-7q-28 0 -34 26l-19 90q-2 10 -2 19z" />
<glyph unicode="&#xbe;" horiz-adv-x="2498" d="M137 1454q0 21 27 31q47 18 149 36.5t209 18.5q168 0 266.5 -63.5t98.5 -196.5q0 -173 -203 -203v-33q112 -14 167.5 -65t55.5 -150q0 -62 -22 -110.5t-58 -79t-87 -50.5t-104.5 -28t-115.5 -8q-87 0 -180 12.5t-131 24.5q-25 11 -25 33v6l15 98q3 25 26 25q11 0 19 -2 q106 -25 233 -25q93 0 143 27t50 96q0 27 -9 47t-21.5 31.5t-35.5 20t-41.5 11.5t-48.5 7q-45 8 -102 14q-10 0 -22.5 8t-12.5 23v92q0 6 2 11.5t4.5 8.5t6.5 5t7 3t6.5 2t4.5 1q15 2 48.5 6.5t49.5 7.5q75 10 110 32.5t35 80.5q0 62 -42.5 85t-131.5 23q-35 0 -75.5 -5 t-65.5 -10t-71.5 -16t-61.5 -14h-15q-21 0 -28 27l-21 88q-2 10 -2 16zM688 102q0 2 1 6t1 5l942 1396q6 9 15 9q2 0 5.5 -1t4.5 -1l135 -93q8 -5 8 -16q0 -6 -4 -10l-942 -1399q-3 -6 -14 -6q-9 0 -11 2l-135 92q-6 3 -6 16zM1427 248v121q0 26 15 49l379 514q20 20 37 20 h280q15 0 25 -11t10 -28v-530h106q18 0 29.5 -11t11.5 -26v-102q0 -15 -11.5 -26t-29.5 -11h-100v-168q0 -17 -11 -28t-26 -11h-143q-15 0 -26 11t-11 28v170h-500q-15 0 -25 11t-10 28zM1638 383h326v410h-25z" />
<glyph unicode="&#xbf;" d="M137 -86q0 51 14.5 95.5t33 74.5t55 63.5t58.5 50t67 46.5q18 13 49.5 32.5t49 31t40 30.5t34.5 36.5t20.5 43.5t8.5 57q0 51 -8 111v6q0 31 43 31h219q15 0 22.5 -4t10 -9.5t4.5 -17.5q14 -77 14 -146q0 -51 -12 -93t-29 -71t-53 -61t-64.5 -52t-84.5 -56 q-35 -23 -54.5 -37t-45.5 -38.5t-38 -52.5t-12 -61q0 -153 246 -153q46 0 103.5 7t96 14.5t84 17t50.5 10.5q10 2 14 2q11 0 17.5 -5t8.5 -10.5t5 -15.5l29 -125q4 -16 4 -24q0 -26 -29 -35q-226 -66 -440 -66q-53 0 -100.5 3.5t-102.5 14t-100.5 27.5t-89 46t-73 67 t-47.5 93t-18 122zM535 799v241q0 31 36 31h252q39 0 39 -31v-241q0 -19 -11 -30t-28 -11h-252q-15 0 -25.5 11.5t-10.5 29.5z" />
<glyph unicode="&#xc0;" horiz-adv-x="1613" d="M41 25l2 10l475 1452q3 10 13.5 18t21.5 8h510q27 0 37 -24l471 -1454q2 -6 2 -10q0 -10 -9.5 -17.5t-21.5 -7.5h-285q-12 0 -23 9t-15 22l-150 506h-528l-150 -510q-3 -11 -14 -19t-23 -8h-280q-12 0 -22.5 7.5t-10.5 17.5zM557 1864q0 4 4 12l98 129q7 10 19 10 q8 0 14 -6l322 -225q8 -5 8 -17q0 -10 -4 -14l-88 -117q-5 -10 -19 -10q-6 0 -14 4l-330 217q-10 7 -10 17zM606 778h395l-153 502h-90z" />
<glyph unicode="&#xc1;" horiz-adv-x="1613" d="M41 25l2 10l475 1452q3 10 13.5 18t21.5 8h510q27 0 37 -24l471 -1454q2 -6 2 -10q0 -10 -9.5 -17.5t-21.5 -7.5h-285q-12 0 -23 9t-15 22l-150 506h-528l-150 -510q-3 -11 -14 -19t-23 -8h-280q-12 0 -22.5 7.5t-10.5 17.5zM555 1769q0 12 8 17l324 225q6 6 14 6 q9 0 19 -10l96 -129q4 -8 4 -12q0 -12 -8 -17l-330 -217q-8 -4 -14 -4q-14 0 -21 10l-88 117q-4 8 -4 14zM606 778h395l-153 502h-90z" />
<glyph unicode="&#xc2;" horiz-adv-x="1613" d="M41 25l2 10l475 1452q3 10 13.5 18t21.5 8h510q27 0 37 -24l471 -1454q2 -6 2 -10q0 -10 -9.5 -17.5t-21.5 -7.5h-285q-12 0 -23 9t-15 22l-150 506h-528l-150 -510q-3 -11 -14 -19t-23 -8h-280q-12 0 -22.5 7.5t-10.5 17.5zM438 1776q0 9 11 16l305 211h73l306 -211 q10 -7 10 -16q0 -8 -6 -17l-88 -114q-8 -11 -19 -11q-7 0 -16 6l-223 172l-224 -172q-9 -6 -16 -6q-11 0 -19 11l-88 114q-6 9 -6 17zM606 778h395l-153 502h-90z" />
<glyph unicode="&#xc3;" horiz-adv-x="1613" d="M41 25l2 10l475 1452q3 10 13.5 18t21.5 8h510q27 0 37 -24l471 -1454q2 -6 2 -10q0 -10 -9.5 -17.5t-21.5 -7.5h-285q-12 0 -23 9t-15 22l-150 506h-528l-150 -510q-3 -11 -14 -19t-23 -8h-280q-12 0 -22.5 7.5t-10.5 17.5zM416 1806q0 7 14 21q128 112 229 112h5 q53 0 145 -47q5 -3 22 -12.5t26 -14t23.5 -11t26.5 -9.5t23 -4h2q22 0 51 15t44 26.5t48 38.5q8 8 19 8q14 0 20 -12l57 -111q5 -10 5 -16q0 -8 -15 -23q-135 -112 -229 -112h-4q-54 2 -146 49q-6 3 -27 14.5t-32.5 17.5t-29 11.5t-31.5 5.5h-3q-22 0 -50 -14t-45.5 -27 t-47.5 -37q-10 -10 -18 -10q-15 0 -21 14l-57 109q-4 8 -4 18zM606 778h395l-153 502h-90z" />
<glyph unicode="&#xc4;" horiz-adv-x="1613" d="M41 25l2 10l475 1452q3 10 13.5 18t21.5 8h510q27 0 37 -24l471 -1454q2 -6 2 -10q0 -10 -9.5 -17.5t-21.5 -7.5h-285q-12 0 -23 9t-15 22l-150 506h-528l-150 -510q-3 -11 -14 -19t-23 -8h-280q-12 0 -22.5 7.5t-10.5 17.5zM393 1747v158q0 12 12.5 21t30.5 9h236 q18 0 29.5 -9t11.5 -21v-158q0 -14 -11.5 -23.5t-29.5 -9.5h-236q-18 0 -30.5 9.5t-12.5 23.5zM606 778h395l-153 502h-90zM877 1747v158q0 12 12.5 21t30.5 9h235q18 0 29.5 -9t11.5 -21v-158q0 -14 -11.5 -23.5t-29.5 -9.5h-235q-18 0 -30.5 9.5t-12.5 23.5z" />
<glyph unicode="&#xc5;" horiz-adv-x="1613" d="M41 25l2 10l475 1452q3 10 13.5 18t21.5 8h510q27 0 37 -24l471 -1454q2 -6 2 -10q0 -10 -9.5 -17.5t-21.5 -7.5h-285q-12 0 -23 9t-15 22l-150 506h-528l-150 -510q-3 -11 -14 -19t-23 -8h-280q-12 0 -22.5 7.5t-10.5 17.5zM502 1796q0 130 75.5 186t231.5 56 q155 0 231 -56t76 -186q0 -129 -76 -184.5t-231 -55.5q-156 0 -231.5 55t-75.5 185zM606 778h395l-153 502h-90zM709 1796q0 -74 20.5 -105.5t79.5 -31.5t79.5 32t20.5 107q0 74 -20.5 105.5t-79.5 31.5t-79.5 -32t-20.5 -107z" />
<glyph unicode="&#xc6;" horiz-adv-x="1998" d="M41 25v4l440 1458q9 26 37 26h1303q14 0 23 -8.5t9 -21.5v-187q0 -14 -9.5 -23t-22.5 -9h-588v-379h557q15 0 24 -8.5t9 -22.5v-186q0 -14 -9 -22.5t-24 -8.5h-557v-391h588q14 0 23 -9t9 -22v-184q0 -12 -9.5 -21.5t-22.5 -9.5h-891q-15 0 -26 10t-11 23v536h-350 l-150 -540q-3 -12 -13.5 -20.5t-23.5 -8.5h-290q-10 0 -17.5 7t-7.5 18zM600 817h293v471h-166z" />
<glyph unicode="&#xc7;" horiz-adv-x="1443" d="M129 760q0 209 37 352t121 238.5t218 138.5t331 43q268 0 481 -72q39 -13 39 -41l-2 -14l-31 -156q-6 -24 -33 -24q-12 0 -18 2q-202 53 -375 53q-103 0 -176 -19.5t-121 -56.5t-75.5 -102t-38.5 -145.5t-11 -196.5q0 -145 17.5 -238.5t64.5 -161.5t129 -97.5t211 -29.5 q53 0 116 7.5t103.5 15.5t93 19.5t60.5 13.5q10 2 20 2q27 0 33 -27l31 -151q2 -11 2 -17q0 -26 -39 -39q-204 -69 -481 -69q-197 0 -331 43.5t-218 139t-121 238.5t-37 351zM631 -115q0 20 16 25q83 22 187 22q114 0 166.5 -43t52.5 -135t-52.5 -135t-166.5 -43 q-100 0 -187 23q-16 5 -16 24l10 62q3 16 21 16h2q88 -14 118 -14q44 0 65 14.5t21 52.5t-21 53t-65 15q-24 0 -118 -15h-2q-18 0 -21 17z" />
<glyph unicode="&#xc8;" horiz-adv-x="1415" d="M201 33v1448q0 13 10.5 22.5t24.5 9.5h1001q14 0 23.5 -8.5t9.5 -21.5v-187q0 -13 -9.5 -22.5t-23.5 -9.5h-698v-363h667q14 0 23.5 -9t9.5 -22v-188q0 -13 -9.5 -22t-23.5 -9h-667v-405h698q15 0 25 -9t10 -22v-184q0 -13 -10 -22t-25 -9h-1001q-14 0 -24.5 10t-10.5 23 zM502 1866q0 4 4 12l98 129q7 10 19 10q8 0 14 -6l321 -225q9 -6 9 -17q0 -10 -4 -14l-89 -117q-5 -10 -18 -10q-6 0 -14 4l-330 217q-10 7 -10 17z" />
<glyph unicode="&#xc9;" horiz-adv-x="1415" d="M201 33v1448q0 13 10.5 22.5t24.5 9.5h1001q14 0 23.5 -8.5t9.5 -21.5v-187q0 -13 -9.5 -22.5t-23.5 -9.5h-698v-363h667q14 0 23.5 -9t9.5 -22v-188q0 -13 -9.5 -22t-23.5 -9h-667v-405h698q15 0 25 -9t10 -22v-184q0 -13 -10 -22t-25 -9h-1001q-14 0 -24.5 10t-10.5 23 zM524 1767q0 12 8 17l324 225q6 6 14 6q9 0 19 -10l96 -129q4 -8 4 -12q0 -12 -8 -17l-330 -217q-8 -4 -14 -4q-13 0 -21 10l-88 117q-4 8 -4 14z" />
<glyph unicode="&#xca;" horiz-adv-x="1415" d="M201 33v1448q0 13 10.5 22.5t24.5 9.5h1001q14 0 23.5 -8.5t9.5 -21.5v-187q0 -13 -9.5 -22.5t-23.5 -9.5h-698v-363h667q14 0 23.5 -9t9.5 -22v-188q0 -13 -9.5 -22t-23.5 -9h-667v-405h698q15 0 25 -9t10 -22v-184q0 -13 -10 -22t-25 -9h-1001q-14 0 -24.5 10t-10.5 23 zM391 1776q0 9 10 16l306 211h73l305 -211q11 -7 11 -16q0 -8 -6 -17l-89 -114q-8 -11 -18 -11q-7 0 -16 6l-224 172l-223 -172q-9 -6 -16 -6q-11 0 -19 11l-88 114q-6 9 -6 17z" />
<glyph unicode="&#xcb;" horiz-adv-x="1415" d="M201 33v1448q0 13 10.5 22.5t24.5 9.5h1001q14 0 23.5 -8.5t9.5 -21.5v-187q0 -13 -9.5 -22.5t-23.5 -9.5h-698v-363h667q14 0 23.5 -9t9.5 -22v-188q0 -13 -9.5 -22t-23.5 -9h-667v-405h698q15 0 25 -9t10 -22v-184q0 -13 -10 -22t-25 -9h-1001q-14 0 -24.5 10t-10.5 23 zM334 1747v158q0 12 12.5 21t30.5 9h235q18 0 29.5 -9t11.5 -21v-158q0 -14 -11.5 -23.5t-29.5 -9.5h-235q-18 0 -30.5 9.5t-12.5 23.5zM817 1747v158q0 12 12.5 21t30.5 9h236q18 0 29.5 -9t11.5 -21v-158q0 -14 -11.5 -23.5t-29.5 -9.5h-236q-18 0 -30.5 9.5t-12.5 23.5z " />
<glyph unicode="&#xcc;" horiz-adv-x="739" d="M125 1866q0 4 4 12l98 129q7 10 19 10q8 0 14 -6l322 -225q8 -5 8 -17q0 -10 -4 -14l-88 -117q-5 -10 -19 -10q-6 0 -14 4l-330 217q-10 7 -10 17zM201 31v1446q0 25 30 28l277 35h4q13 0 20 -9t7 -20v-1480q0 -13 -9.5 -22t-23.5 -9h-273q-14 0 -23 9t-9 22z" />
<glyph unicode="&#xcd;" horiz-adv-x="739" d="M117 1769q0 12 8 17l324 225q6 6 14 6t18 -10l97 -129q4 -8 4 -12q0 -11 -9 -17l-329 -217q-8 -4 -15 -4q-13 0 -20 10l-88 117q-4 8 -4 14zM201 31v1446q0 25 30 28l277 35h4q13 0 20 -9t7 -20v-1480q0 -13 -9.5 -22t-23.5 -9h-273q-14 0 -23 9t-9 22z" />
<glyph unicode="&#xce;" horiz-adv-x="739" d="M23 1776q0 9 10 16l305 211h74l305 -211q10 -7 10 -16q0 -8 -6 -17l-88 -114q-8 -11 -19 -11q-7 0 -16 6l-223 172l-223 -172q-9 -6 -17 -6q-10 0 -18 11l-88 114q-6 9 -6 17zM201 31v1446q0 25 30 28l277 35h4q13 0 20 -9t7 -20v-1480q0 -13 -9.5 -22t-23.5 -9h-273 q-14 0 -23 9t-9 22z" />
<glyph unicode="&#xcf;" horiz-adv-x="739" d="M-25 1747v158q0 12 12.5 21t30.5 9h236q18 0 29.5 -9t11.5 -21v-158q0 -14 -11.5 -23.5t-29.5 -9.5h-236q-18 0 -30.5 9.5t-12.5 23.5zM201 31v1446q0 25 30 28l277 35h4q13 0 20 -9t7 -20v-1480q0 -13 -9.5 -22t-23.5 -9h-273q-14 0 -23 9t-9 22zM457 1747v158 q0 12 12.5 21t30.5 9h235q18 0 29.5 -9t11.5 -21v-158q0 -14 -11.5 -23.5t-29.5 -9.5h-235q-18 0 -30.5 9.5t-12.5 23.5z" />
<glyph unicode="&#xd0;" horiz-adv-x="1736" d="M25 690v152q0 14 11 22t23 8h183v611q0 12 9.5 21t22.5 9h639q197 0 330 -43t214 -137.5t116 -233t35 -341.5q0 -204 -35 -343t-116 -234t-214 -138t-330 -43h-639q-13 0 -22.5 9.5t-9.5 23.5v624h-183q-14 0 -24 10t-10 23zM582 236h295q112 0 181 21.5t116.5 80.5 t66.5 159t19 261q0 162 -18.5 262t-66 158.5t-116.5 80t-182 21.5h-295v-408h389q13 0 25 -8t12 -22v-152q0 -12 -11 -22.5t-26 -10.5h-389v-421z" />
<glyph unicode="&#xd1;" horiz-adv-x="1812" d="M201 31v1452q0 12 10.5 21t24.5 9h550q30 0 41 -28l435 -1292h32l-16 1286q0 34 45 34h242q23 0 35 -7.5t12 -28.5v-1446q0 -13 -10 -22t-25 -9h-537q-13 0 -24.5 9.5t-14.5 23.5l-423 1227h-64l23 -1229q0 -13 -9.5 -22t-23.5 -9h-271q-14 0 -23 9t-9 22zM539 1806 q0 7 14 21q128 112 229 112h4q54 0 146 -47q5 -3 22 -12.5t26 -14t23.5 -11t26.5 -9.5t23 -4h2q22 0 51 15t44 26.5t48 38.5q8 8 19 8q14 0 20 -12l57 -111q4 -8 4 -16q0 -9 -14 -23q-135 -112 -229 -112h-4q-54 2 -146 49q-5 3 -27 14.5t-33 17t-29 11.5t-32 6h-2 q-22 0 -50 -14t-45.5 -27t-47.5 -37q-10 -10 -18 -10q-15 0 -21 14l-57 109q-4 8 -4 18z" />
<glyph unicode="&#xd2;" horiz-adv-x="1722" d="M129 756q0 107 9 194t31 169.5t58 145.5t92.5 116t132 87t178.5 53t230 19q149 0 264 -24.5t195 -73.5t134 -114.5t84.5 -157t43 -190t12.5 -224.5q0 -152 -18 -265t-66.5 -214.5t-129.5 -165.5t-211 -101t-308 -37q-127 0 -230 19t-178.5 53t-132 87t-92.5 116 t-58 145.5t-31 169t-9 193.5zM477 758q0 -101 4.5 -169.5t18.5 -135.5t40 -108t68.5 -73.5t104.5 -46.5t147 -14q73 0 129 11.5t97 32t69.5 56.5t46 76.5t27 101.5t13 122t3.5 147t-3.5 147t-13 122t-27 101.5t-45.5 76.5t-69 56.5t-97.5 32t-129.5 11.5q-85 0 -147 -14 t-104.5 -46.5t-68.5 -73.5t-40 -108t-18.5 -135.5t-4.5 -169.5zM578 1866q0 4 4 12l98 129q7 10 18 10q9 0 15 -6l321 -225q8 -5 8 -17q0 -10 -4 -14l-88 -117q-5 -10 -18 -10q-6 0 -14 4l-330 217q-10 7 -10 17z" />
<glyph unicode="&#xd3;" horiz-adv-x="1722" d="M129 756q0 107 9 194t31 169.5t58 145.5t92.5 116t132 87t178.5 53t230 19q149 0 264 -24.5t195 -73.5t134 -114.5t84.5 -157t43 -190t12.5 -224.5q0 -152 -18 -265t-66.5 -214.5t-129.5 -165.5t-211 -101t-308 -37q-127 0 -230 19t-178.5 53t-132 87t-92.5 116 t-58 145.5t-31 169t-9 193.5zM477 758q0 -101 4.5 -169.5t18.5 -135.5t40 -108t68.5 -73.5t104.5 -46.5t147 -14q73 0 129 11.5t97 32t69.5 56.5t46 76.5t27 101.5t13 122t3.5 147t-3.5 147t-13 122t-27 101.5t-45.5 76.5t-69 56.5t-97.5 32t-129.5 11.5q-85 0 -147 -14 t-104.5 -46.5t-68.5 -73.5t-40 -108t-18.5 -135.5t-4.5 -169.5zM623 1769q0 12 8 17l323 225q6 6 15 6q8 0 18 -10l96 -129q4 -8 4 -12q0 -12 -8 -17l-329 -217q-8 -4 -15 -4q-13 0 -20 10l-88 117q-4 8 -4 14z" />
<glyph unicode="&#xd4;" horiz-adv-x="1722" d="M129 756q0 107 9 194t31 169.5t58 145.5t92.5 116t132 87t178.5 53t230 19q149 0 264 -24.5t195 -73.5t134 -114.5t84.5 -157t43 -190t12.5 -224.5q0 -152 -18 -265t-66.5 -214.5t-129.5 -165.5t-211 -101t-308 -37q-127 0 -230 19t-178.5 53t-132 87t-92.5 116 t-58 145.5t-31 169t-9 193.5zM477 758q0 -101 4.5 -169.5t18.5 -135.5t40 -108t68.5 -73.5t104.5 -46.5t147 -14q73 0 129 11.5t97 32t69.5 56.5t46 76.5t27 101.5t13 122t3.5 147t-3.5 147t-13 122t-27 101.5t-45.5 76.5t-69 56.5t-97.5 32t-129.5 11.5q-85 0 -147 -14 t-104.5 -46.5t-68.5 -73.5t-40 -108t-18.5 -135.5t-4.5 -169.5zM500 1776q0 9 10 16l305 211h74l305 -211q10 -7 10 -16q0 -8 -6 -17l-88 -114q-8 -11 -18 -11q-8 0 -17 6l-223 172l-223 -172q-9 -6 -17 -6q-10 0 -18 11l-88 114q-6 9 -6 17z" />
<glyph unicode="&#xd5;" horiz-adv-x="1722" d="M129 756q0 107 9 194t31 169.5t58 145.5t92.5 116t132 87t178.5 53t230 19q149 0 264 -24.5t195 -73.5t134 -114.5t84.5 -157t43 -190t12.5 -224.5q0 -152 -18 -265t-66.5 -214.5t-129.5 -165.5t-211 -101t-308 -37q-127 0 -230 19t-178.5 53t-132 87t-92.5 116 t-58 145.5t-31 169t-9 193.5zM461 1806q0 7 14 21q128 112 230 112h4q53 0 145 -47q5 -3 22 -12.5t26 -14t23.5 -11t26.5 -9.5t23 -4h2q22 0 51 15t44 26.5t48 38.5q8 8 19 8q14 0 20 -12l58 -111q4 -8 4 -16t-15 -23q-135 -112 -229 -112h-4q-54 2 -146 49q-6 3 -27 14.5 t-32.5 17.5t-29 11.5t-31.5 5.5h-2q-48 0 -144 -78q-10 -10 -18 -10q-15 0 -21 14l-57 109q-4 8 -4 18zM477 758q0 -101 4.5 -169.5t18.5 -135.5t40 -108t68.5 -73.5t104.5 -46.5t147 -14q73 0 129 11.5t97 32t69.5 56.5t46 76.5t27 101.5t13 122t3.5 147t-3.5 147t-13 122 t-27 101.5t-45.5 76.5t-69 56.5t-97.5 32t-129.5 11.5q-85 0 -147 -14t-104.5 -46.5t-68.5 -73.5t-40 -108t-18.5 -135.5t-4.5 -169.5z" />
<glyph unicode="&#xd6;" horiz-adv-x="1722" d="M129 756q0 107 9 194t31 169.5t58 145.5t92.5 116t132 87t178.5 53t230 19q149 0 264 -24.5t195 -73.5t134 -114.5t84.5 -157t43 -190t12.5 -224.5q0 -152 -18 -265t-66.5 -214.5t-129.5 -165.5t-211 -101t-308 -37q-127 0 -230 19t-178.5 53t-132 87t-92.5 116 t-58 145.5t-31 169t-9 193.5zM440 1747v158q0 12 12.5 21t30.5 9h236q18 0 29.5 -9t11.5 -21v-158q0 -14 -11.5 -23.5t-29.5 -9.5h-236q-18 0 -30.5 9.5t-12.5 23.5zM477 758q0 -101 4.5 -169.5t18.5 -135.5t40 -108t68.5 -73.5t104.5 -46.5t147 -14q73 0 129 11.5t97 32 t69.5 56.5t46 76.5t27 101.5t13 122t3.5 147t-3.5 147t-13 122t-27 101.5t-45.5 76.5t-69 56.5t-97.5 32t-129.5 11.5q-85 0 -147 -14t-104.5 -46.5t-68.5 -73.5t-40 -108t-18.5 -135.5t-4.5 -169.5zM924 1747v158q0 12 12.5 21t30.5 9h235q18 0 29.5 -9t11.5 -21v-158 q0 -14 -11.5 -23.5t-29.5 -9.5h-235q-18 0 -30.5 9.5t-12.5 23.5z" />
<glyph unicode="&#xd7;" d="M141 330q0 13 15 28l329 310l-329 307q-15 15 -15 29q0 16 13 26l114 113q12 12 27 12q18 0 29 -14l315 -322l315 322q11 14 29 14q15 0 27 -12l114 -113q13 -10 13 -26q0 -14 -15 -29l-329 -307l329 -310q15 -15 15 -28q0 -17 -13 -27l-114 -113q-12 -12 -27 -12 q-17 0 -29 15l-315 323l-315 -323q-12 -15 -29 -15q-15 0 -27 12l-114 113q-13 10 -13 27z" />
<glyph unicode="&#xd8;" horiz-adv-x="1748" d="M119 10q0 9 10 19l145 170q-131 179 -131 557q0 107 9 194t31 169.5t58.5 145.5t93 116t132.5 87t179 53t231 19q294 0 462 -102l140 164q10 10 20 10q13 0 21 -8l98 -74q12 -12 12 -21q0 -7 -10 -20l-145 -168q135 -181 135 -565q0 -125 -12.5 -223.5t-43.5 -190 t-85 -157t-134 -114.5t-195 -73.5t-263 -24.5q-302 0 -469 107l-140 -164q-10 -10 -18 -10q-9 0 -21 8l-98 76q-12 9 -12 20zM492 758q0 -188 22 -281l639 746q-85 82 -276 82q-73 0 -129 -11.5t-97 -32t-69.5 -56.5t-46 -76.5t-27 -101.5t-13 -122t-3.5 -147zM594 295 q84 -84 280 -84q73 0 129.5 11.5t97.5 32t69.5 56.5t46 76.5t27 101.5t13 122t3.5 147q0 189 -25 284z" />
<glyph unicode="&#xd9;" horiz-adv-x="1675" d="M180 520v955q0 25 31 28l276 37h5q13 0 19.5 -8.5t6.5 -20.5v-1007q0 -73 14 -124t49 -91t99 -59t160 -19q173 0 245 68.5t72 212.5v983q0 24 33 28l274 37h6q12 0 19.5 -9t7.5 -20v-987q0 -282 -161 -416.5t-498 -134.5q-329 0 -493.5 129t-164.5 418zM588 1866 q0 4 4 12l98 129q7 10 19 10q8 0 14 -6l321 -225q9 -6 9 -17q0 -10 -4 -14l-88 -117q-5 -10 -19 -10q-6 0 -14 4l-330 217q-10 7 -10 17z" />
<glyph unicode="&#xda;" horiz-adv-x="1675" d="M180 520v955q0 25 31 28l276 37h5q13 0 19.5 -8.5t6.5 -20.5v-1007q0 -73 14 -124t49 -91t99 -59t160 -19q173 0 245 68.5t72 212.5v983q0 24 33 28l274 37h6q12 0 19.5 -9t7.5 -20v-987q0 -282 -161 -416.5t-498 -134.5q-329 0 -493.5 129t-164.5 418zM588 1769 q0 12 8 17l324 225q6 6 14 6t18 -10l97 -129q4 -8 4 -12q0 -11 -9 -17l-329 -217q-8 -4 -15 -4q-12 0 -20 10l-88 117q-4 8 -4 14z" />
<glyph unicode="&#xdb;" horiz-adv-x="1675" d="M180 520v955q0 25 31 28l276 37h5q13 0 19.5 -8.5t6.5 -20.5v-1007q0 -73 14 -124t49 -91t99 -59t160 -19q173 0 245 68.5t72 212.5v983q0 24 33 28l274 37h6q12 0 19.5 -9t7.5 -20v-987q0 -282 -161 -416.5t-498 -134.5q-329 0 -493.5 129t-164.5 418zM500 1776 q0 9 10 16l305 211h74l305 -211q10 -7 10 -16q0 -8 -6 -17l-88 -114q-8 -11 -18 -11q-8 0 -17 6l-223 172l-223 -172q-9 -6 -17 -6q-10 0 -18 11l-88 114q-6 9 -6 17z" />
<glyph unicode="&#xdc;" horiz-adv-x="1675" d="M180 520v955q0 25 31 28l276 37h5q13 0 19.5 -8.5t6.5 -20.5v-1007q0 -73 14 -124t49 -91t99 -59t160 -19q173 0 245 68.5t72 212.5v983q0 24 33 28l274 37h6q12 0 19.5 -9t7.5 -20v-987q0 -282 -161 -416.5t-498 -134.5q-329 0 -493.5 129t-164.5 418zM434 1747v158 q0 12 12.5 21t30.5 9h236q18 0 29.5 -9t11.5 -21v-158q0 -14 -11.5 -23.5t-29.5 -9.5h-236q-18 0 -30.5 9.5t-12.5 23.5zM918 1747v158q0 12 12.5 21t30.5 9h235q18 0 29.5 -9t11.5 -21v-158q0 -14 -11.5 -23.5t-29.5 -9.5h-235q-18 0 -30.5 9.5t-12.5 23.5z" />
<glyph unicode="&#xdd;" horiz-adv-x="1507" d="M4 1481q0 13 10 22.5t21 9.5h319q20 0 29 -6.5t20 -25.5l371 -641l356 641q10 20 19.5 26t28.5 6h299q14 0 21 -9t7 -21q0 -11 -4 -17l-569 -895v-540q0 -13 -10 -22t-25 -9h-270q-15 0 -25 9t-10 22v536l-584 897q-4 6 -4 17zM514 1772q0 11 8 16l324 225q6 6 14 6 q9 0 19 -10l96 -129q4 -8 4 -12q0 -12 -8 -17l-330 -217q-8 -4 -14 -4q-13 0 -21 10l-88 117q-4 8 -4 15z" />
<glyph unicode="&#xde;" horiz-adv-x="1513" d="M201 31v1446q0 25 30 28l277 35h4q13 0 20 -9t7 -20v-282h426q262 0 376 -117q109 -112 109 -348q0 -241 -115 -356q-121 -121 -430 -121h-366v-256q0 -13 -9.5 -22t-23.5 -9h-273q-14 0 -23 9t-9 22zM539 502l254 8q102 3 160.5 15t93.5 44q53 53 53 193q0 122 -51 176 q-35 35 -91.5 45t-158.5 10h-260v-491z" />
<glyph unicode="&#xdf;" horiz-adv-x="1304" d="M147 -395v1521q0 219 122.5 316.5t371.5 97.5q77 0 143.5 -11t126.5 -38t102 -67.5t66.5 -103.5t24.5 -144q0 -70 -14.5 -122.5t-46.5 -91.5t-66.5 -65t-89.5 -57q-23 -14 -23 -37t25 -35q11 -5 47.5 -23t54 -27.5t52 -31.5t53.5 -40.5t44.5 -49.5t38.5 -64t23 -78.5 t10 -97.5q0 -198 -116 -290.5t-320 -92.5q-122 0 -233 39q-25 10 -25 33v2l25 139q2 11 10 18t18 7l19 -2q8 -2 26.5 -6.5t30.5 -7t33.5 -5t44.5 -2.5q81 0 133.5 44.5t52.5 134.5q0 47 -16 86.5t-42 67.5t-57.5 52.5t-62.5 46.5t-57 44t-42 51.5t-16 62.5q0 39 19.5 70.5 t47 55t55.5 51t47.5 73.5t19.5 107q0 90 -41.5 140t-122.5 50q-98 0 -142 -42.5t-44 -156.5v-1478q0 -23 -8 -33.5t-29 -13.5l-227 -31h-11q-35 0 -35 35z" />
<glyph unicode="&#xe0;" horiz-adv-x="1218" d="M94 324q0 55 10.5 99t26 74.5t42 54.5t50.5 38t61 25.5t62.5 16.5t65.5 11l356 57v56q0 46 -9.5 71t-39.5 39q-43 21 -146 21q-38 0 -78.5 -4t-82.5 -12t-68 -13.5t-65 -15.5t-43 -11q-16 -4 -21 -4q-19 0 -22 19l-31 135q-2 8 -2 16q0 21 24 31q56 22 185 48t272 26 q206 0 311 -60q72 -39 101.5 -104.5t29.5 -159.5v-563q0 -58 -10 -94.5t-37.5 -59.5t-59 -35t-91.5 -26q-128 -27 -291 -27q-58 0 -103.5 2.5t-99.5 11.5t-94.5 24t-80 41.5t-65.5 62.5t-41.5 89t-15.5 120zM391 1440q0 8 4 12l99 129q7 10 18 10q6 0 14 -4l322 -227 q8 -5 8 -17q0 -10 -4 -12l-88 -119q-7 -10 -19 -10q-6 0 -14 4l-330 217q-10 7 -10 17zM406 328q0 -41 13 -71t32 -46t47.5 -25t51.5 -11.5t52 -2.5q90 0 168 23v317l-219 -35q-37 -6 -57 -11.5t-43.5 -20.5t-34 -44t-10.5 -73z" />
<glyph unicode="&#xe1;" horiz-adv-x="1218" d="M94 324q0 55 10.5 99t26 74.5t42 54.5t50.5 38t61 25.5t62.5 16.5t65.5 11l356 57v56q0 46 -9.5 71t-39.5 39q-43 21 -146 21q-38 0 -78.5 -4t-82.5 -12t-68 -13.5t-65 -15.5t-43 -11q-16 -4 -21 -4q-19 0 -22 19l-31 135q-2 8 -2 16q0 21 24 31q56 22 185 48t272 26 q206 0 311 -60q72 -39 101.5 -104.5t29.5 -159.5v-563q0 -58 -10 -94.5t-37.5 -59.5t-59 -35t-91.5 -26q-128 -27 -291 -27q-58 0 -103.5 2.5t-99.5 11.5t-94.5 24t-80 41.5t-65.5 62.5t-41.5 89t-15.5 120zM401 1343q0 11 9 17l321 227q8 4 14 4q11 0 21 -10l96 -129 q4 -4 4 -12q0 -12 -8 -17l-330 -217q-12 -4 -16 -4q-8 0 -18 10l-88 119q-5 5 -5 12zM406 328q0 -41 13 -71t32 -46t47.5 -25t51.5 -11.5t52 -2.5q90 0 168 23v317l-219 -35q-37 -6 -57 -11.5t-43.5 -20.5t-34 -44t-10.5 -73z" />
<glyph unicode="&#xe2;" horiz-adv-x="1218" d="M94 324q0 55 10.5 99t26 74.5t42 54.5t50.5 38t61 25.5t62.5 16.5t65.5 11l356 57v56q0 46 -9.5 71t-39.5 39q-43 21 -146 21q-38 0 -78.5 -4t-82.5 -12t-68 -13.5t-65 -15.5t-43 -11q-16 -4 -21 -4q-19 0 -22 19l-31 135q-2 8 -2 16q0 21 24 31q56 22 185 48t272 26 q206 0 311 -60q72 -39 101.5 -104.5t29.5 -159.5v-563q0 -58 -10 -94.5t-37.5 -59.5t-59 -35t-91.5 -26q-128 -27 -291 -27q-58 0 -103.5 2.5t-99.5 11.5t-94.5 24t-80 41.5t-65.5 62.5t-41.5 89t-15.5 120zM266 1350q0 9 10 16l306 211h73l306 -211q10 -7 10 -16 q0 -8 -6 -17l-88 -114q-8 -11 -19 -11q-7 0 -16 6l-224 172l-223 -172q-9 -6 -16 -6q-11 0 -19 11l-88 114q-6 9 -6 17zM406 328q0 -41 13 -71t32 -46t47.5 -25t51.5 -11.5t52 -2.5q90 0 168 23v317l-219 -35q-37 -6 -57 -11.5t-43.5 -20.5t-34 -44t-10.5 -73z" />
<glyph unicode="&#xe3;" horiz-adv-x="1218" d="M94 324q0 55 10.5 99t26 74.5t42 54.5t50.5 38t61 25.5t62.5 16.5t65.5 11l356 57v56q0 46 -9.5 71t-39.5 39q-43 21 -146 21q-38 0 -78.5 -4t-82.5 -12t-68 -13.5t-65 -15.5t-43 -11q-16 -4 -21 -4q-19 0 -22 19l-31 135q-2 8 -2 16q0 21 24 31q56 22 185 48t272 26 q206 0 311 -60q72 -39 101.5 -104.5t29.5 -159.5v-563q0 -58 -10 -94.5t-37.5 -59.5t-59 -35t-91.5 -26q-128 -27 -291 -27q-58 0 -103.5 2.5t-99.5 11.5t-94.5 24t-80 41.5t-65.5 62.5t-41.5 89t-15.5 120zM236 1389q0 8 14 22q130 113 229 113h4q64 -2 144 -49 q8 -4 28.5 -14.5t33 -17t29.5 -12t30 -6.5h2q54 0 143 80q12 8 18 8q17 0 23 -14l55 -108q4 -8 4 -17q0 -8 -14 -22q-130 -113 -229 -113h-5q-59 0 -143 49q-8 4 -28.5 14.5t-32.5 16.5t-29 11.5t-31 6.5h-2q-22 0 -51 -15t-44 -26.5t-48 -38.5q-12 -8 -19 -8q-16 0 -22 15 l-55 108q-4 8 -4 17zM406 328q0 -41 13 -71t32 -46t47.5 -25t51.5 -11.5t52 -2.5q90 0 168 23v317l-219 -35q-37 -6 -57 -11.5t-43.5 -20.5t-34 -44t-10.5 -73z" />
<glyph unicode="&#xe4;" horiz-adv-x="1218" d="M94 324q0 55 10.5 99t26 74.5t42 54.5t50.5 38t61 25.5t62.5 16.5t65.5 11l356 57v56q0 46 -9.5 71t-39.5 39q-43 21 -146 21q-38 0 -78.5 -4t-82.5 -12t-68 -13.5t-65 -15.5t-43 -11q-16 -4 -21 -4q-19 0 -22 19l-31 135q-2 8 -2 16q0 21 24 31q56 22 185 48t272 26 q206 0 311 -60q72 -39 101.5 -104.5t29.5 -159.5v-563q0 -58 -10 -94.5t-37.5 -59.5t-59 -35t-91.5 -26q-128 -27 -291 -27q-58 0 -103.5 2.5t-99.5 11.5t-94.5 24t-80 41.5t-65.5 62.5t-41.5 89t-15.5 120zM209 1303v157q0 13 11.5 22t29.5 9h235q18 0 30.5 -9.5 t12.5 -21.5v-157q0 -14 -12.5 -23.5t-30.5 -9.5h-235q-18 0 -29.5 9.5t-11.5 23.5zM406 328q0 -41 13 -71t32 -46t47.5 -25t51.5 -11.5t52 -2.5q90 0 168 23v317l-219 -35q-37 -6 -57 -11.5t-43.5 -20.5t-34 -44t-10.5 -73zM692 1303v157q0 13 11.5 22t29.5 9h236 q18 0 30.5 -9.5t12.5 -21.5v-157q0 -14 -12.5 -23.5t-30.5 -9.5h-236q-18 0 -29.5 9.5t-11.5 23.5z" />
<glyph unicode="&#xe5;" horiz-adv-x="1218" d="M94 324q0 55 10.5 99t26 74.5t42 54.5t50.5 38t61 25.5t62.5 16.5t65.5 11l356 57v56q0 46 -9.5 71t-39.5 39q-43 21 -146 21q-38 0 -78.5 -4t-82.5 -12t-68 -13.5t-65 -15.5t-43 -11q-16 -4 -21 -4q-19 0 -22 19l-31 135q-2 8 -2 16q0 21 24 31q56 22 185 48t272 26 q206 0 311 -60q72 -39 101.5 -104.5t29.5 -159.5v-563q0 -58 -10 -94.5t-37.5 -59.5t-59 -35t-91.5 -26q-128 -27 -291 -27q-58 0 -103.5 2.5t-99.5 11.5t-94.5 24t-80 41.5t-65.5 62.5t-41.5 89t-15.5 120zM350 1401q0 118 69.5 168.5t211.5 50.5q141 0 210.5 -50.5 t69.5 -168.5q0 -119 -69 -170t-211 -51t-211.5 51t-69.5 170zM406 328q0 -41 13 -71t32 -46t47.5 -25t51.5 -11.5t52 -2.5q90 0 168 23v317l-219 -35q-37 -6 -57 -11.5t-43.5 -20.5t-34 -44t-10.5 -73zM539 1399q0 -68 18.5 -96.5t73.5 -28.5q53 0 72.5 29.5t19.5 97.5 t-19.5 97.5t-72.5 29.5q-54 0 -73 -29.5t-19 -99.5z" />
<glyph unicode="&#xe6;" horiz-adv-x="1935" d="M94 324q0 72 18 125.5t44.5 85.5t72.5 55t87 34t102 21l381 66q0 78 -31 116q-45 60 -170 60q-157 0 -377 -58h-6q-9 0 -16.5 6.5t-8.5 16.5l-28 131q0 3 -1 8.5t-1 7.5q0 17 24 29q43 20 176.5 47t260.5 27q80 0 146 -16.5t120.5 -57.5t79.5 -104q42 83 135 130.5 t235 47.5q280 0 396 -144q98 -122 98 -407v-111q0 -55 -51 -55h-670q0 -113 98 -162q74 -39 209 -39q30 0 61.5 3t54.5 6t52.5 9.5t43 10t40 10.5t29.5 8q8 2 12 2q24 0 31 -26l26 -117q2 -8 2 -16q0 -22 -22 -33q-166 -68 -381 -68q-316 0 -420 193q-105 -193 -381 -193 q-62 0 -112.5 5t-107 17.5t-99.5 37.5t-78.5 62.5t-54.5 95.5t-19 133zM399 330q0 -158 195 -158q115 0 162 62t47 194v98l-238 -41q-43 -8 -69 -16t-50.5 -24.5t-35.5 -44.5t-11 -70zM1104 575h416q0 115 -13 179q-18 75 -61.5 107t-132.5 32t-134 -34.5t-63 -108.5 q-12 -56 -12 -175z" />
<glyph unicode="&#xe7;" horiz-adv-x="1060" d="M94 541q0 117 14.5 203t50 156t94.5 113t147.5 66t209.5 23q108 0 211 -16.5t142 -36.5q24 -12 24 -35v-10l-26 -127q-6 -25 -31 -25l-12 2q-129 33 -234 33q-156 0 -214 -75.5t-58 -268.5q0 -195 58 -271.5t214 -76.5q109 0 234 32q8 2 12 2q26 0 31 -26l26 -125v-10 q0 -21 -24 -33q-38 -21 -140.5 -37t-212.5 -16q-121 0 -209.5 23t-147.5 66t-94.5 112.5t-50 155.5t-14.5 202zM416 -115q0 20 16 25q83 22 186 22q114 0 167 -43t53 -135t-53 -135t-167 -43q-99 0 -186 23q-16 5 -16 24l10 62q3 16 20 16h3q87 -14 118 -14q44 0 65 14.5 t21 52.5t-21 53t-65 15q-24 0 -118 -15h-3q-17 0 -20 17z" />
<glyph unicode="&#xe8;" horiz-adv-x="1222" d="M94 532q0 154 25 258t84.5 176t158.5 104t248 32q290 0 408 -139q102 -123 102 -408l-2 -98q0 -54 -49 -54h-661q0 -63 21 -103.5t67 -70.5q74 -45 221 -45q30 0 61 2.5t54 6t51.5 10t43 10t39 10.5t29.5 8q9 2 13 2q23 0 30 -26l27 -117q2 -8 2 -16q0 -22 -23 -33 q-166 -68 -380 -68q-152 0 -257.5 29.5t-176.5 96t-103.5 172.5t-32.5 261zM362 1440q0 7 5 12l98 129q7 10 18 10q7 0 15 -4l321 -227q8 -5 8 -17q0 -10 -4 -12l-88 -119q-7 -10 -18 -10q-7 0 -15 4l-329 217q-11 7 -11 17zM408 594h401v12q0 83 -14 146 q-17 78 -59.5 109.5t-121.5 31.5q-94 0 -137 -31t-57 -102q-8 -40 -12 -166z" />
<glyph unicode="&#xe9;" horiz-adv-x="1222" d="M94 532q0 154 25 258t84.5 176t158.5 104t248 32q290 0 408 -139q102 -123 102 -408l-2 -98q0 -54 -49 -54h-661q0 -63 21 -103.5t67 -70.5q74 -45 221 -45q30 0 61 2.5t54 6t51.5 10t43 10t39 10.5t29.5 8q9 2 13 2q23 0 30 -26l27 -117q2 -8 2 -16q0 -22 -23 -33 q-166 -68 -380 -68q-152 0 -257.5 29.5t-176.5 96t-103.5 172.5t-32.5 261zM381 1343q0 12 8 17l322 227q8 4 14 4q10 0 20 -10l97 -129q4 -4 4 -12q0 -12 -8 -17l-330 -217q-12 -4 -16 -4q-9 0 -19 10l-88 119q-4 4 -4 12zM408 594h401v12q0 83 -14 146q-17 78 -59.5 109.5 t-121.5 31.5q-94 0 -137 -31t-57 -102q-8 -40 -12 -166z" />
<glyph unicode="&#xea;" horiz-adv-x="1222" d="M94 532q0 154 25 258t84.5 176t158.5 104t248 32q290 0 408 -139q102 -123 102 -408l-2 -98q0 -54 -49 -54h-661q0 -63 21 -103.5t67 -70.5q74 -45 221 -45q30 0 61 2.5t54 6t51.5 10t43 10t39 10.5t29.5 8q9 2 13 2q23 0 30 -26l27 -117q2 -8 2 -16q0 -22 -23 -33 q-166 -68 -380 -68q-152 0 -257.5 29.5t-176.5 96t-103.5 172.5t-32.5 261zM262 1350q0 9 10 16l306 211h73l305 -211q11 -7 11 -16q0 -8 -6 -17l-89 -114q-8 -11 -18 -11q-7 0 -16 6l-224 172l-223 -172q-9 -6 -16 -6q-11 0 -19 11l-88 114q-6 9 -6 17zM408 594h401v12 q0 83 -14 146q-17 78 -59.5 109.5t-121.5 31.5q-94 0 -137 -31t-57 -102q-8 -40 -12 -166z" />
<glyph unicode="&#xeb;" horiz-adv-x="1222" d="M94 532q0 154 25 258t84.5 176t158.5 104t248 32q290 0 408 -139q102 -123 102 -408l-2 -98q0 -54 -49 -54h-661q0 -63 21 -103.5t67 -70.5q74 -45 221 -45q30 0 61 2.5t54 6t51.5 10t43 10t39 10.5t29.5 8q9 2 13 2q23 0 30 -26l27 -117q2 -8 2 -16q0 -22 -23 -33 q-166 -68 -380 -68q-152 0 -257.5 29.5t-176.5 96t-103.5 172.5t-32.5 261zM211 1303v157q0 13 11.5 22t29.5 9h235q18 0 30.5 -9.5t12.5 -21.5v-157q0 -14 -12.5 -23.5t-30.5 -9.5h-235q-18 0 -29.5 9.5t-11.5 23.5zM408 594h401v12q0 83 -14 146q-17 78 -59.5 109.5 t-121.5 31.5q-94 0 -137 -31t-57 -102q-8 -40 -12 -166zM692 1303v157q0 13 11.5 22t29.5 9h236q18 0 30.5 -9.5t12.5 -21.5v-157q0 -14 -12.5 -23.5t-30.5 -9.5h-236q-18 0 -29.5 9.5t-11.5 23.5z" />
<glyph unicode="&#xec;" horiz-adv-x="669" d="M88 1440q0 8 4 12l98 129q7 10 19 10q6 0 14 -4l322 -227q8 -5 8 -17q0 -10 -4 -12l-88 -119q-7 -10 -19 -10q-6 0 -14 4l-330 217q-10 7 -10 17zM178 31v989q0 13 9.5 22t23.5 9h250q14 0 23.5 -9t9.5 -22v-989q0 -13 -9.5 -22t-23.5 -9h-250q-14 0 -23.5 9t-9.5 22z " />
<glyph unicode="&#xed;" horiz-adv-x="669" d="M82 1343q0 12 8 17l322 227q8 4 14 4q10 0 20 -10l97 -129q4 -4 4 -12q0 -12 -8 -17l-330 -217q-12 -4 -16 -4q-9 0 -19 10l-88 119q-4 4 -4 12zM178 31v989q0 13 9.5 22t23.5 9h250q14 0 23.5 -9t9.5 -22v-989q0 -13 -9.5 -22t-23.5 -9h-250q-14 0 -23.5 9t-9.5 22z" />
<glyph unicode="&#xee;" horiz-adv-x="669" d="M-10 1350q0 9 10 16l305 211h74l305 -211q10 -7 10 -16q0 -8 -6 -17l-88 -114q-8 -11 -18 -11q-8 0 -17 6l-223 172l-223 -172q-9 -6 -17 -6q-10 0 -18 11l-88 114q-6 9 -6 17zM178 31v989q0 13 9.5 22t23.5 9h250q14 0 23.5 -9t9.5 -22v-989q0 -13 -9.5 -22t-23.5 -9 h-250q-14 0 -23.5 9t-9.5 22z" />
<glyph unicode="&#xef;" horiz-adv-x="669" d="M-63 1303v157q0 13 11 22t29 9h236q18 0 30.5 -9.5t12.5 -21.5v-157q0 -14 -12.5 -23.5t-30.5 -9.5h-236q-18 0 -29 9.5t-11 23.5zM178 31v989q0 13 9.5 22t23.5 9h250q14 0 23.5 -9t9.5 -22v-989q0 -13 -9.5 -22t-23.5 -9h-250q-14 0 -23.5 9t-9.5 22zM420 1303v157 q0 13 11.5 22t29.5 9h235q18 0 30.5 -9.5t12.5 -21.5v-157q0 -14 -12.5 -23.5t-30.5 -9.5h-235q-18 0 -29.5 9.5t-11.5 23.5z" />
<glyph unicode="&#xf0;" horiz-adv-x="1241" d="M94 520q0 54 3.5 100t15 104t30.5 104.5t53 93t80 77.5t114.5 50.5t152.5 19.5q160 0 274 -92l10 6q-16 116 -70 208t-124 142l-199 -139q-9 -6 -18 -6q-11 0 -19 8l-82 84q-8 8 -8 23q0 11 10 18l148 96q-89 37 -297 37q-51 3 -51 41v137q0 25 12 33t33 10q27 2 67 2 q284 0 469 -96l146 107q11 8 18 8q9 0 19 -10l86 -95q6 -8 6 -16q0 -12 -12 -21l-109 -77q57 -49 101 -109.5t88.5 -159.5t69 -250.5t24.5 -343.5v-4q0 -76 -1.5 -120t-11.5 -120t-28.5 -123t-56.5 -105t-92 -90.5t-138 -55.5t-191 -23q-121 0 -213 28t-150 75.5t-94 118.5 t-50.5 149.5t-14.5 175.5zM414 520q0 -71 4 -118t16 -91.5t33.5 -69.5t58 -40t88.5 -15q53 0 89 15t58 40t33.5 69.5t15 91.5t3.5 118q0 72 -3.5 118.5t-15 91.5t-33.5 70.5t-58 40.5t-89 15q-52 0 -88.5 -15t-58 -40.5t-33.5 -70t-16 -92t-4 -118.5z" />
<glyph unicode="&#xf1;" horiz-adv-x="1261" d="M147 31v893q0 56 37 82t133 49q192 47 394 47q103 0 175.5 -14t128.5 -48.5t83.5 -98t27.5 -157.5v-753q0 -13 -9 -22t-23 -9h-250q-15 0 -25 9t-10 22v710q0 83 -33 116.5t-106 33.5q-43 0 -94.5 -6.5t-81.5 -13.5l-31 -7v-833q0 -14 -9 -22.5t-24 -8.5h-250 q-15 0 -24 8.5t-9 22.5zM260 1389q0 8 14 22q130 113 230 113h4q63 -2 143 -49q8 -4 28.5 -14.5t33 -17t29.5 -12t30 -6.5h2q55 0 144 80q12 8 18 8q16 0 22 -14l56 -108q4 -8 4 -17q0 -8 -14 -22q-130 -113 -230 -113h-4q-59 0 -143 49q-8 4 -28.5 14.5t-32.5 16.5 t-29 11.5t-31 6.5h-2q-22 0 -50.5 -14.5t-45.5 -27t-48 -38.5q-12 -8 -18 -8q-17 0 -23 15l-55 108q-4 8 -4 17z" />
<glyph unicode="&#xf2;" horiz-adv-x="1228" d="M94 537q0 75 4.5 132t18 118.5t36.5 105.5t62 85.5t93 67.5t131.5 41t174.5 15t174 -15t131 -41t93.5 -67t63 -86t37 -106t18 -118.5t4.5 -131.5q0 -105 -9.5 -180.5t-41.5 -152.5t-87.5 -124.5t-152 -77t-230.5 -29.5q-97 0 -174.5 15t-131.5 41t-93 67.5t-62 86 t-36.5 105.5t-18 118t-4.5 131zM362 1440q0 7 5 12l98 129q7 10 18 10q7 0 15 -4l321 -227q8 -5 8 -17q0 -10 -4 -12l-88 -119q-7 -10 -18 -10q-7 0 -15 4l-329 217q-11 7 -11 17zM416 537q0 -60 1 -95.5t5 -78t12 -66t22 -48t35.5 -36.5t51.5 -19.5t71 -7.5q40 0 70 7.5 t51.5 19.5t36 36t22.5 48.5t12.5 66t5.5 78t1 95.5t-1 96t-5.5 79t-13 66t-22.5 48t-35.5 36t-51.5 19.5t-70 7.5q-28 0 -51.5 -3t-42 -10.5t-33 -16.5t-25.5 -24.5t-18.5 -30t-12.5 -39t-8 -45.5t-4.5 -54t-2 -60t-0.5 -69z" />
<glyph unicode="&#xf3;" horiz-adv-x="1228" d="M94 537q0 75 4.5 132t18 118.5t36.5 105.5t62 85.5t93 67.5t131.5 41t174.5 15t174 -15t131 -41t93.5 -67t63 -86t37 -106t18 -118.5t4.5 -131.5q0 -105 -9.5 -180.5t-41.5 -152.5t-87.5 -124.5t-152 -77t-230.5 -29.5q-97 0 -174.5 15t-131.5 41t-93 67.5t-62 86 t-36.5 105.5t-18 118t-4.5 131zM379 1343q0 12 8 17l322 227q8 4 14 4q10 0 20 -10l97 -129q4 -4 4 -12q0 -12 -8 -17l-330 -217q-12 -4 -17 -4q-8 0 -18 10l-88 119q-4 4 -4 12zM416 537q0 -60 1 -95.5t5 -78t12 -66t22 -48t35.5 -36.5t51.5 -19.5t71 -7.5q40 0 70 7.5 t51.5 19.5t36 36t22.5 48.5t12.5 66t5.5 78t1 95.5t-1 96t-5.5 79t-13 66t-22.5 48t-35.5 36t-51.5 19.5t-70 7.5q-28 0 -51.5 -3t-42 -10.5t-33 -16.5t-25.5 -24.5t-18.5 -30t-12.5 -39t-8 -45.5t-4.5 -54t-2 -60t-0.5 -69z" />
<glyph unicode="&#xf4;" horiz-adv-x="1228" d="M94 537q0 75 4.5 132t18 118.5t36.5 105.5t62 85.5t93 67.5t131.5 41t174.5 15t174 -15t131 -41t93.5 -67t63 -86t37 -106t18 -118.5t4.5 -131.5q0 -105 -9.5 -180.5t-41.5 -152.5t-87.5 -124.5t-152 -77t-230.5 -29.5q-97 0 -174.5 15t-131.5 41t-93 67.5t-62 86 t-36.5 105.5t-18 118t-4.5 131zM262 1350q0 9 10 16l306 211h73l305 -211q11 -7 11 -16q0 -8 -6 -17l-89 -114q-8 -11 -18 -11q-7 0 -16 6l-224 172l-223 -172q-9 -6 -16 -6q-11 0 -19 11l-88 114q-6 9 -6 17zM416 537q0 -60 1 -95.5t5 -78t12 -66t22 -48t35.5 -36.5 t51.5 -19.5t71 -7.5q40 0 70 7.5t51.5 19.5t36 36t22.5 48.5t12.5 66t5.5 78t1 95.5t-1 96t-5.5 79t-13 66t-22.5 48t-35.5 36t-51.5 19.5t-70 7.5q-28 0 -51.5 -3t-42 -10.5t-33 -16.5t-25.5 -24.5t-18.5 -30t-12.5 -39t-8 -45.5t-4.5 -54t-2 -60t-0.5 -69z" />
<glyph unicode="&#xf5;" horiz-adv-x="1228" d="M94 537q0 75 4.5 132t18 118.5t36.5 105.5t62 85.5t93 67.5t131.5 41t174.5 15t174 -15t131 -41t93.5 -67t63 -86t37 -106t18 -118.5t4.5 -131.5q0 -105 -9.5 -180.5t-41.5 -152.5t-87.5 -124.5t-152 -77t-230.5 -29.5q-97 0 -174.5 15t-131.5 41t-93 67.5t-62 86 t-36.5 105.5t-18 118t-4.5 131zM236 1389q0 8 14 22q130 113 229 113h4q64 -2 144 -49q8 -4 28.5 -14.5t33 -17t29.5 -12t30 -6.5h2q54 0 143 80q12 8 18 8q17 0 23 -14l55 -108q4 -8 4 -17q0 -8 -14 -22q-130 -113 -229 -113h-5q-59 0 -143 49q-8 4 -28.5 14.5t-32.5 16.5 t-29 11.5t-31 6.5h-2q-22 0 -51 -15t-44 -26.5t-48 -38.5q-12 -8 -19 -8q-16 0 -22 15l-55 108q-4 8 -4 17zM416 537q0 -60 1 -95.5t5 -78t12 -66t22 -48t35.5 -36.5t51.5 -19.5t71 -7.5q40 0 70 7.5t51.5 19.5t36 36t22.5 48.5t12.5 66t5.5 78t1 95.5t-1 96t-5.5 79t-13 66 t-22.5 48t-35.5 36t-51.5 19.5t-70 7.5q-28 0 -51.5 -3t-42 -10.5t-33 -16.5t-25.5 -24.5t-18.5 -30t-12.5 -39t-8 -45.5t-4.5 -54t-2 -60t-0.5 -69z" />
<glyph unicode="&#xf6;" horiz-adv-x="1228" d="M94 537q0 75 4.5 132t18 118.5t36.5 105.5t62 85.5t93 67.5t131.5 41t174.5 15t174 -15t131 -41t93.5 -67t63 -86t37 -106t18 -118.5t4.5 -131.5q0 -105 -9.5 -180.5t-41.5 -152.5t-87.5 -124.5t-152 -77t-230.5 -29.5q-97 0 -174.5 15t-131.5 41t-93 67.5t-62 86 t-36.5 105.5t-18 118t-4.5 131zM209 1303v157q0 13 11.5 22t29.5 9h235q18 0 30.5 -9.5t12.5 -21.5v-157q0 -14 -12.5 -23.5t-30.5 -9.5h-235q-18 0 -29.5 9.5t-11.5 23.5zM416 537q0 -60 1 -95.5t5 -78t12 -66t22 -48t35.5 -36.5t51.5 -19.5t71 -7.5q40 0 70 7.5t51.5 19.5 t36 36t22.5 48.5t12.5 66t5.5 78t1 95.5t-1 96t-5.5 79t-13 66t-22.5 48t-35.5 36t-51.5 19.5t-70 7.5q-28 0 -51.5 -3t-42 -10.5t-33 -16.5t-25.5 -24.5t-18.5 -30t-12.5 -39t-8 -45.5t-4.5 -54t-2 -60t-0.5 -69zM692 1303v157q0 13 11.5 22t29.5 9h236q18 0 30.5 -9.5 t12.5 -21.5v-157q0 -14 -12.5 -23.5t-30.5 -9.5h-236q-18 0 -29.5 9.5t-11.5 23.5z" />
<glyph unicode="&#xf7;" d="M102 590v149q0 14 12.5 24.5t32.5 10.5h983q20 0 33 -10.5t13 -24.5v-149q0 -15 -13 -26t-33 -11h-983q-20 0 -32.5 11t-12.5 26zM506 182v219q0 14 12.5 23.5t30.5 9.5h180q18 0 29.5 -9.5t11.5 -23.5v-219q0 -12 -11.5 -21t-29.5 -9h-180q-18 0 -30.5 9t-12.5 21z M506 928v219q0 12 12.5 21.5t30.5 9.5h180q18 0 29.5 -9t11.5 -22v-219q0 -14 -11.5 -23.5t-29.5 -9.5h-180q-18 0 -30.5 9.5t-12.5 23.5z" />
<glyph unicode="&#xf8;" horiz-adv-x="1325" d="M84 -31q0 11 10 21l125 145q-57 71 -78.5 169t-21.5 233q0 74 4.5 131.5t19 118.5t39 106t65.5 86t97.5 67t137 41t182.5 15q199 0 325 -66l125 146q12 12 23 12q10 0 20 -10l72 -58q12 -10 12 -20q0 -13 -8 -21l-127 -145q58 -71 79 -167.5t21 -235.5q0 -74 -4.5 -131 t-19 -118t-38.5 -105.5t-65 -86t-97 -67.5t-136.5 -41t-181.5 -15q-202 0 -328 66l-125 -145q-13 -13 -23 -13t-20 10l-72 58q-12 10 -12 20zM442 537q0 -85 7 -131l372 436q-50 47 -159 47q-40 0 -70.5 -4.5t-53 -17t-38.5 -25.5t-27 -38.5t-17 -48t-9 -62t-4 -71.5t-1 -85 zM498 238q49 -52 164 -52q45 0 79 7.5t58 19.5t40 36.5t25 48t14 65.5t6 78t1 96q0 88 -8 143z" />
<glyph unicode="&#xf9;" horiz-adv-x="1251" d="M137 360v654q0 44 37 49l234 39h10q35 0 35 -37v-717q0 -86 37.5 -126t136.5 -40q104 0 139 42.5t35 123.5v666q0 41 37 49l227 37q12 2 16 2q35 0 35 -37v-703q0 -205 -117 -297t-372 -92q-124 0 -212 19t-152 63.5t-95 120t-31 184.5zM389 1440q0 8 4 12l99 129 q7 10 18 10q6 0 14 -4l322 -227q8 -5 8 -17q0 -10 -4 -12l-88 -119q-7 -10 -19 -10q-6 0 -14 4l-330 217q-10 7 -10 17z" />
<glyph unicode="&#xfa;" horiz-adv-x="1251" d="M137 360v654q0 44 37 49l234 39h10q35 0 35 -37v-717q0 -86 37.5 -126t136.5 -40q104 0 139 42.5t35 123.5v666q0 41 37 49l227 37q12 2 16 2q35 0 35 -37v-703q0 -205 -117 -297t-372 -92q-124 0 -212 19t-152 63.5t-95 120t-31 184.5zM391 1343q0 12 8 17l322 227 q8 4 14 4q11 0 21 -10l96 -129q4 -4 4 -12q0 -12 -8 -17l-330 -217q-12 -4 -16 -4q-9 0 -19 10l-88 119q-4 4 -4 12z" />
<glyph unicode="&#xfb;" horiz-adv-x="1251" d="M137 360v654q0 44 37 49l234 39h10q35 0 35 -37v-717q0 -86 37.5 -126t136.5 -40q104 0 139 42.5t35 123.5v666q0 41 37 49l227 37q12 2 16 2q35 0 35 -37v-703q0 -205 -117 -297t-372 -92q-124 0 -212 19t-152 63.5t-95 120t-31 184.5zM268 1350q0 9 11 16l305 211h73 l306 -211q10 -7 10 -16q0 -8 -6 -17l-88 -114q-8 -11 -19 -11q-7 0 -16 6l-223 172l-224 -172q-9 -6 -16 -6q-11 0 -19 11l-88 114q-6 9 -6 17z" />
<glyph unicode="&#xfc;" horiz-adv-x="1251" d="M137 360v654q0 44 37 49l234 39h10q35 0 35 -37v-717q0 -86 37.5 -126t136.5 -40q104 0 139 42.5t35 123.5v666q0 41 37 49l227 37q12 2 16 2q35 0 35 -37v-703q0 -205 -117 -297t-372 -92q-124 0 -212 19t-152 63.5t-95 120t-31 184.5zM223 1303v157q0 13 11.5 22 t29.5 9h236q18 0 30.5 -9.5t12.5 -21.5v-157q0 -14 -12.5 -23.5t-30.5 -9.5h-236q-18 0 -29.5 9.5t-11.5 23.5zM707 1303v157q0 13 11.5 22t29.5 9h235q18 0 30.5 -9.5t12.5 -21.5v-157q0 -14 -12.5 -23.5t-30.5 -9.5h-235q-18 0 -29.5 9.5t-11.5 23.5z" />
<glyph unicode="&#xfd;" horiz-adv-x="1157" d="M51 1040q0 15 10 25t27 10h242q22 0 32.5 -7t14.5 -28l194 -843h56l174 841q4 21 15 29t32 8h237q17 0 28 -10t11 -25q0 -10 -2 -16l-323 -1141q-23 -79 -48.5 -130.5t-69.5 -96t-113 -65.5t-167 -21q-136 0 -208 14q-31 6 -31 37v2l2 127q1 13 3.5 20.5t11 14t22.5 6.5 h2q15 0 56 -2t65 -2q79 0 120 27t58 92l26 94h-153q-30 0 -37 33l-285 989q-2 8 -2 18zM350 1343q0 12 8 17l322 227q8 4 14 4q11 0 21 -10l96 -129q4 -4 4 -12q0 -12 -8 -17l-330 -217q-12 -4 -16 -4q-9 0 -19 10l-88 119q-4 4 -4 12z" />
<glyph unicode="&#xfe;" horiz-adv-x="1253" d="M147 -393v1845q0 44 37 49l234 39h10q35 0 35 -35v-321l-23 -127q144 45 277 45q237 0 340.5 -130.5t103.5 -434.5q0 -98 -8.5 -173t-36.5 -152t-75 -126.5t-128.5 -81t-193.5 -31.5q-157 0 -279 37l23 -129v-223q0 -44 -37 -49l-233 -39h-11q-35 0 -35 37zM463 203 q72 -17 160 -17q66 0 104.5 13t65.5 52.5t37 109t10 186.5q0 113 -8 178t-31.5 102.5t-57.5 48.5t-96 11q-36 0 -82 -6.5t-74 -13.5l-28 -7v-657z" />
<glyph unicode="&#xff;" horiz-adv-x="1157" d="M51 1040q0 15 10 25t27 10h242q22 0 32.5 -7t14.5 -28l194 -843h56l174 841q4 21 15 29t32 8h237q17 0 28 -10t11 -25q0 -10 -2 -16l-323 -1141q-23 -79 -48.5 -130.5t-69.5 -96t-113 -65.5t-167 -21q-136 0 -208 14q-31 6 -31 37v2l2 127q1 13 3.5 20.5t11 14t22.5 6.5 h2q15 0 56 -2t65 -2q79 0 120 27t58 92l26 94h-153q-30 0 -37 33l-285 989q-2 8 -2 18zM186 1303v157q0 13 11.5 22t29.5 9h236q18 0 30.5 -9.5t12.5 -21.5v-157q0 -14 -12.5 -23.5t-30.5 -9.5h-236q-18 0 -29.5 9.5t-11.5 23.5zM670 1303v157q0 13 11.5 22t29.5 9h235 q18 0 30.5 -9.5t12.5 -21.5v-157q0 -14 -12.5 -23.5t-30.5 -9.5h-235q-18 0 -29.5 9.5t-11.5 23.5z" />
<glyph unicode="&#x152;" horiz-adv-x="2308" d="M129 758q0 94 5 167t20.5 157.5t43 147.5t75.5 124t114.5 100t163 62.5t217.5 23.5q113 0 219 -35t168 -100v76q0 32 37 32h938q14 0 23.5 -8.5t9.5 -21.5v-187q0 -13 -9.5 -22.5t-23.5 -9.5h-684v-363h653q14 0 23.5 -9t9.5 -22v-188q0 -13 -9.5 -22t-23.5 -9h-653v-405 h684q15 0 24 -8.5t9 -22.5v-184q0 -13 -9.5 -22t-23.5 -9h-938q-37 0 -37 33v76q-62 -65 -168.5 -100.5t-218.5 -35.5q-121 0 -217.5 24t-163 62.5t-114.5 100t-75.5 124.5t-43 148t-20.5 158.5t-5 167.5zM475 756q0 -102 4 -172t16 -137t33.5 -109t56.5 -74.5t86 -46.5 t120 -14q83 0 140.5 22.5t93 63t55 112t26 152.5t6.5 203t-6.5 203t-26 152.5t-55 112t-93 63t-140.5 22.5q-69 0 -120 -14t-86 -46.5t-56.5 -74.5t-33.5 -109t-16 -137t-4 -172z" />
<glyph unicode="&#x153;" horiz-adv-x="1923" d="M94 537q0 74 4.5 130.5t18 118t36.5 106t62 86t93 67.5t131.5 41.5t174.5 15.5q82 0 148 -13.5t104.5 -35t58 -37.5t29.5 -31q11 15 33.5 32t63 37.5t109 34t151.5 13.5q293 0 409 -144q99 -121 99 -385v-116q0 -54 -50 -54h-661q0 -64 22.5 -104.5t69.5 -69.5 q74 -45 217 -45q30 0 61 2.5t54 6t52 10t43 10t39 10.5t30 8q8 2 12 2q24 0 31 -26l26 -117q2 -8 2 -16q0 -22 -22 -33q-166 -68 -381 -68q-89 0 -163.5 13.5t-119.5 34t-70.5 38.5t-37.5 33q-24 -37 -117 -78t-242 -41q-97 0 -174.5 15.5t-131.5 41t-93 67.5t-62 86.5 t-36.5 105.5t-18 117.5t-4.5 130.5zM416 537q0 -52 0.5 -83.5t3.5 -70.5t8.5 -61.5t15 -48t24 -39t35 -26t48.5 -17.5t63 -5q40 0 70 7.5t51.5 20t36 37t22.5 48.5t12.5 65.5t5.5 78t1 94.5t-1 95t-5.5 78.5t-12.5 65.5t-22.5 48.5t-36 37t-51.5 20t-70 7.5q-36 0 -63.5 -5 t-48 -17t-35 -26t-24 -39.5t-15 -48t-8.5 -61.5t-3.5 -71t-0.5 -84zM1102 588l401 2v14q0 102 -12 156q-18 72 -61 102.5t-121 30.5q-93 0 -137 -31t-58 -100q-8 -39 -12 -174z" />
<glyph unicode="&#x178;" horiz-adv-x="1507" d="M4 1481q0 13 10 22.5t21 9.5h319q20 0 29 -6.5t20 -25.5l371 -641l356 641q10 20 19.5 26t28.5 6h299q14 0 21 -9t7 -21q0 -11 -4 -17l-569 -895v-540q0 -13 -10 -22t-25 -9h-270q-15 0 -25 9t-10 22v536l-584 897q-4 6 -4 17zM346 1747v158q0 12 12.5 21t30.5 9h236 q18 0 29.5 -9t11.5 -21v-158q0 -14 -11.5 -23.5t-29.5 -9.5h-236q-18 0 -30.5 9.5t-12.5 23.5zM827 1747v158q0 12 12.5 21t30.5 9h236q18 0 29.5 -9t11.5 -21v-158q0 -14 -11.5 -23.5t-29.5 -9.5h-236q-18 0 -30.5 9.5t-12.5 23.5z" />
<glyph unicode="&#x2c6;" horiz-adv-x="1036" d="M166 1350q0 9 10 16l305 211h74l305 -211q10 -7 10 -16q0 -8 -6 -17l-88 -114q-8 -11 -18 -11q-8 0 -17 6l-223 172l-223 -172q-9 -6 -16 -6q-11 0 -19 11l-88 114q-6 9 -6 17z" />
<glyph unicode="&#x2dc;" horiz-adv-x="1097" d="M170 1389q0 11 14 22q130 113 228 113h4q65 -2 145 -49q9 -4 28.5 -14.5t32 -17t29.5 -12t31 -6.5h2q50 0 143 80q8 8 19 8q16 0 22 -14l56 -108q4 -8 4 -17q0 -7 -15 -22q-136 -113 -229 -113h-4q-59 0 -143 49q-7 3 -28.5 14t-33 17t-29 11.5t-30.5 6.5h-2 q-50 0 -144 -80q-12 -8 -18 -8q-17 0 -23 15l-55 108q-4 4 -4 17z" />
<glyph unicode="&#x2000;" horiz-adv-x="1019" />
<glyph unicode="&#x2001;" horiz-adv-x="2038" />
<glyph unicode="&#x2002;" horiz-adv-x="1019" />
<glyph unicode="&#x2003;" horiz-adv-x="2038" />
<glyph unicode="&#x2004;" horiz-adv-x="679" />
<glyph unicode="&#x2005;" horiz-adv-x="509" />
<glyph unicode="&#x2006;" horiz-adv-x="339" />
<glyph unicode="&#x2007;" horiz-adv-x="339" />
<glyph unicode="&#x2008;" horiz-adv-x="254" />
<glyph unicode="&#x2009;" horiz-adv-x="407" />
<glyph unicode="&#x200a;" horiz-adv-x="113" />
<glyph unicode="&#x2010;" horiz-adv-x="858" d="M106 492v139q0 17 13 29t33 12h555q20 0 32.5 -11.5t12.5 -29.5v-139q0 -18 -14 -28.5t-31 -10.5h-555q-16 0 -31 10.5t-15 28.5z" />
<glyph unicode="&#x2011;" horiz-adv-x="858" d="M106 492v139q0 17 13 29t33 12h555q20 0 32.5 -11.5t12.5 -29.5v-139q0 -18 -14 -28.5t-31 -10.5h-555q-16 0 -31 10.5t-15 28.5z" />
<glyph unicode="&#x2012;" horiz-adv-x="858" d="M106 492v139q0 17 13 29t33 12h555q20 0 32.5 -11.5t12.5 -29.5v-139q0 -18 -14 -28.5t-31 -10.5h-555q-16 0 -31 10.5t-15 28.5z" />
<glyph unicode="&#x2013;" horiz-adv-x="1323" d="M106 485v154q0 14 13 23.5t33 9.5h1017q20 0 34 -9.5t14 -23.5v-154q0 -16 -15.5 -25t-32.5 -9h-1017q-15 0 -30.5 9t-15.5 25z" />
<glyph unicode="&#x2014;" horiz-adv-x="2433" d="M106 485v154q0 14 14 23.5t34 9.5h2127q20 0 33 -9.5t13 -23.5v-154q0 -16 -15.5 -25t-32.5 -9h-2127q-15 0 -30.5 9t-15.5 25z" />
<glyph unicode="&#x2018;" horiz-adv-x="569" d="M100 1026q0 10 2 18l136 439q9 30 41 30h155q12 0 22.5 -10.5t10.5 -25.5v-7l-66 -444q-1 -15 -14.5 -26t-28.5 -11h-221q-16 0 -26.5 10t-10.5 27z" />
<glyph unicode="&#x2019;" horiz-adv-x="569" d="M100 1026v6l66 445q1 15 14.5 25.5t28.5 10.5h221q16 0 26.5 -9.5t10.5 -26.5q0 -11 -2 -19l-135 -438q-4 -14 -16 -22.5t-25 -8.5h-156q-12 0 -22.5 11t-10.5 26z" />
<glyph unicode="&#x201a;" horiz-adv-x="481" d="M102 -150v451q0 15 10 26t23 11h211q13 0 24 -10t11 -23v-4l-37 -451q-3 -36 -33 -36h-176q-14 0 -23.5 10.5t-9.5 25.5z" />
<glyph unicode="&#x201c;" horiz-adv-x="997" d="M100 1026q0 10 2 18l136 439q9 30 41 30h155q12 0 22.5 -10.5t10.5 -25.5v-7l-66 -444q-1 -15 -14.5 -26t-28.5 -11h-221q-16 0 -26.5 10t-10.5 27zM528 1026q0 10 2 18l136 439q9 30 41 30h155q12 0 22.5 -10.5t10.5 -25.5v-7l-66 -444q-1 -15 -14.5 -26t-28.5 -11h-221 q-16 0 -26.5 10t-10.5 27z" />
<glyph unicode="&#x201d;" horiz-adv-x="997" d="M100 1026v6l66 445q1 15 14.5 25.5t28.5 10.5h221q16 0 26.5 -9.5t10.5 -26.5q0 -11 -2 -19l-135 -438q-4 -14 -16 -22.5t-25 -8.5h-156q-12 0 -22.5 11t-10.5 26zM528 1026v6l66 445q1 15 14.5 25.5t28.5 10.5h221q16 0 26.5 -9.5t10.5 -26.5q0 -11 -2 -19l-135 -438 q-4 -14 -16 -22.5t-25 -8.5h-156q-12 0 -22.5 11t-10.5 26z" />
<glyph unicode="&#x201e;" horiz-adv-x="874" d="M102 -150v451q0 15 10 26t23 11h211q13 0 24 -10t11 -23v-4l-37 -451q0 -15 -9.5 -25.5t-23.5 -10.5h-176q-14 0 -23.5 10.5t-9.5 25.5zM496 -150v451q0 15 10 26t22 11h213q12 0 22.5 -10t10.5 -23v-4l-35 -451q-2 -15 -11 -25.5t-21 -10.5h-179q-12 0 -22 10.5 t-10 25.5z" />
<glyph unicode="&#x2022;" horiz-adv-x="874" d="M168 524v365q0 37 25.5 63.5t62.5 26.5h365q37 0 62.5 -26.5t25.5 -63.5v-365q0 -37 -25.5 -63.5t-62.5 -26.5h-365q-37 0 -62.5 26.5t-25.5 63.5z" />
<glyph unicode="&#x2026;" horiz-adv-x="2203" d="M215 35v215q0 14 12.5 24.5t32.5 10.5h281q20 0 33.5 -10.5t13.5 -24.5v-215q0 -14 -13.5 -24.5t-33.5 -10.5h-281q-20 0 -32.5 10.5t-12.5 24.5zM915 35v215q0 14 13 24.5t33 10.5h280q20 0 33.5 -10.5t13.5 -24.5v-215q0 -14 -13.5 -24.5t-33.5 -10.5h-280 q-20 0 -33 10.5t-13 24.5zM1616 35v215q0 14 12.5 24.5t32.5 10.5h281q20 0 33.5 -10.5t13.5 -24.5v-215q0 -14 -13.5 -24.5t-33.5 -10.5h-281q-20 0 -32.5 10.5t-12.5 24.5z" />
<glyph unicode="&#x202f;" horiz-adv-x="407" />
<glyph unicode="&#x2039;" horiz-adv-x="786" d="M111 592q0 13 8 24l350 478q11 14 25 14q11 0 20 -6l148 -84q14 -8 14 -25q0 -9 -6 -18l-297 -383l297 -383q6 -9 6 -19q0 -16 -14 -24l-148 -84q-9 -6 -20 -6q-14 0 -25 14l-350 477q-8 11 -8 25z" />
<glyph unicode="&#x203a;" horiz-adv-x="786" d="M111 190q0 10 6 19l297 383l-297 383q-6 9 -6 18q0 17 14 25l147 84q9 6 21 6q13 0 24 -14l351 -478q8 -11 8 -24q0 -14 -8 -25l-351 -477q-11 -14 -24 -14q-12 0 -21 6l-147 84q-14 8 -14 24z" />
<glyph unicode="&#x205f;" horiz-adv-x="509" />
<glyph unicode="&#x20ac;" horiz-adv-x="1576" d="M123 539v131q0 12 9 20t22 8h1157q26 0 26 -22v-4l-20 -135q-3 -27 -29 -27h-598q16 -76 37 -124.5t60 -86.5t101 -55t154 -17q54 0 117 7t104.5 15t83.5 17t48 10q12 3 18 3q25 0 31 -23l31 -150q2 -10 2 -16q0 -25 -39 -41q-171 -67 -447 -67q-165 0 -282 31t-194.5 98 t-120 163.5t-60.5 235.5h-180q-14 0 -22.5 8t-8.5 21zM123 842v129q0 13 8.5 21.5t22.5 8.5h178q34 281 184.5 406t474.5 125q280 0 447 -70q22 -9 30.5 -17t8.5 -20l-2 -16l-31 -152q-6 -22 -31 -22q-10 0 -20 2q-4 1 -33.5 7t-61 11t-73.5 11.5t-90.5 10t-92.5 3.5 q-94 0 -157.5 -17t-102.5 -55t-60 -85.5t-36 -121.5h641q11 0 18 -7t7 -17v-2l-19 -137q-3 -27 -28 -27h-1151q-14 0 -22.5 8.5t-8.5 22.5z" />
<glyph unicode="&#x2122;" horiz-adv-x="2121" d="M47 1368v111q0 34 39 34h768q37 0 37 -34v-111q0 -35 -37 -35h-268v-676q0 -36 -37 -36h-160q-37 0 -37 36v676h-266q-39 0 -39 35zM930 655v2l53 822q3 34 39 34h334q24 0 28 -26l109 -473h10l113 473q2 10 10 18t21 8h327q34 0 37 -34l53 -822v-2q0 -34 -36 -34h-154 q-37 0 -37 36l-39 660h-37l-133 -477q-5 -25 -29 -25h-219q-20 0 -30 25l-127 477h-37l-37 -660q-3 -36 -37 -36h-145q-37 0 -37 34z" />
<glyph unicode="&#xe000;" horiz-adv-x="1075" d="M0 0v1075h1075v-1075h-1075z" />
</font>
</defs>
</svg>
